<?xml version="1.0" encoding="UTF-8"?>
<!DOCTYPE svg PUBLIC "-//W3C//DTD SVG 1.1//EN" "http://www.w3.org/Graphics/SVG/1.1/DTD/svg11.dtd">
<svg xmlns="http://www.w3.org/2000/svg" xml:space="preserve" width="48px" height="48px" version="1.1" shape-rendering="geometricPrecision" text-rendering="geometricPrecision" image-rendering="optimizeQuality" fill-rule="evenodd" clip-rule="evenodd"
viewBox="0 0 480 480"
 xmlns:xlink="http://www.w3.org/1999/xlink">
 <g id="Layer_x0020_1">
  <metadata id="d"/>
  <circle fill="black" cx="240" cy="240" r="240"/>
  <circle fill="white" cx="240" cy="240" r="220"/>
  <circle fill="#00CAFF" cx="240" cy="240" r="195"/>
  <path fill="white" d="M260 215c14,2 26,9 36,19 10,10 15,24 15,41 0,13 -3,24 -9,34 -7,10 -15,18 -26,23 -11,5 -23,8 -35,8 -16,0 -30,-4 -41,-12 -12,-7 -21,-17 -27,-30l21 -15c6,9 13,16 20,21 7,5 16,8 26,8 11,0 21,-4 28,-11 8,-6 11,-15 11,-26 0,-11 -4,-19 -11,-25 -8,-6 -19,-9 -33,-9l-22 0 0 -9 45 -60 -72 0 0 -29 121 0 0 9 -47 63z"/>
 </g>
</svg>
