<?xml version="1.0" encoding="UTF-8"?>
<!DOCTYPE svg PUBLIC "-//W3C//DTD SVG 1.1//EN" "http://www.w3.org/Graphics/SVG/1.1/DTD/svg11.dtd">
<svg xmlns="http://www.w3.org/2000/svg" xml:space="preserve" width="570px" height="350px" version="1.1" shape-rendering="geometricPrecision" text-rendering="geometricPrecision" image-rendering="optimizeQuality" fill-rule="evenodd" clip-rule="evenodd"
viewBox="0 0 5700 3500"
 xmlns:xlink="http://www.w3.org/1999/xlink">
 <defs>
   <linearGradient id="id0" gradientUnits="userSpaceOnUse" x1="1103.4" y1="3208.48" x2="1103.4" y2="3378.98">
    <stop offset="0" stop-opacity="1" stop-color="#2CC0E1"/>
    <stop offset="1" stop-opacity="1" stop-color="#146CAE"/>
   </linearGradient>
   <linearGradient id="id1" gradientUnits="userSpaceOnUse" x1="1249.78" y1="3208.48" x2="1249.78" y2="3378.98">
    <stop offset="0" stop-opacity="1" stop-color="#2CC0E1"/>
    <stop offset="1" stop-opacity="1" stop-color="#146CAE"/>
   </linearGradient>
   <linearGradient id="id2" gradientUnits="userSpaceOnUse" x1="1403.07" y1="3131.67" x2="1403.07" y2="3375.54">
    <stop offset="0" stop-opacity="1" stop-color="#2CC0E1"/>
    <stop offset="1" stop-opacity="1" stop-color="#146CAE"/>
   </linearGradient>
   <linearGradient id="id3" gradientUnits="userSpaceOnUse" x1="1568.4" y1="3208.47" x2="1568.4" y2="3378.96">
    <stop offset="0" stop-opacity="1" stop-color="#2CC0E1"/>
    <stop offset="1" stop-opacity="1" stop-color="#146CAE"/>
   </linearGradient>
 </defs>
 <g id="Layer_x0020_1">
  <metadata id="s"/>
  <rect fill="white" stroke="#2B2A29" stroke-width="19.9975" x="2265" y="923" width="878" height="1864" rx="439" ry="638"/>
  <line fill="none" stroke="#F2B406" stroke-width="19.9975" x1="2356" y1="1751" x2="2356" y2= "2046" />
  <line fill="none" stroke="#F2B406" stroke-width="19.9975" x1="3032" y1="1975" x2="3032" y2= "2146" />
  <path fill="#00CAFF" stroke="#2B2A29" stroke-width="19.9975" d="M2232 2140l950 0c155,0 282,127 282,282l0 413c0,3 -3,6 -6,6l-1503 0c-3,0 -6,-3 -6,-6l0 -411c0,-156 127,-284 283,-284z"/>
  <path fill="#00CAFF" d="M2244 2154l927 0c155,0 282,127 282,282l0 414c0,3 -2,6 -6,6l-1482 0c-3,0 -6,-3 -6,-6l0 -412c0,-156 128,-284 285,-284z"/>
  <path fill="white" stroke="#464646" stroke-width="19.9975" d="M3108 2142c0,223 -180,403 -403,403 -222,0 -403,-180 -403,-403l806 0z"/>
  <path fill="white" stroke="#464646" stroke-width="19.9975" d="M3037 2144c0,182 -150,322 -332,322 -182,0 -326,-142 -326,-324 65,-4 105,-27 118,-95l-3 -181 415 6 6 178c9,55 49,91 122,94z"/>
  <rect fill="white" stroke="#2B2A29" stroke-width="19.9975" x="2265" y="608" width="878" height="1312" rx="439" ry="449"/>
  <circle fill="#333333" cx="2667" cy="1662" r="57"/>
  <path fill="none" stroke="#2B2A29" stroke-width="19.9975" d="M2718 1380c0,0 78,74 18,118"/>
  <path fill="none" stroke="#2B2A29" stroke-width="19.9975" d="M2476 1341c0,-35 28,-62 62,-62 34,0 62,27 62,62"/>
  <path fill="none" stroke="#2B2A29" stroke-width="19.9975" d="M2823 1341c0,-35 28,-62 62,-62 34,0 62,27 62,62"/>
  <path fill="none" stroke="#2B2A29" stroke-width="19.9975" d="M2842 864l-3 100c-3,78 -78,178 -185,178 -108,0 -385,3 -385,3"/>
  <path fill="none" stroke="#2B2A29" stroke-width="19.9975" d="M2839 864l3 100c2,78 77,178 185,178 28,0 69,0 113,1"/>
  <path fill="none" stroke="#F2B406" stroke-width="19.9975" d="M2348 1129c0,-296 183,-433 366,-433l0 0"/>
  <circle fill="#FFF3F2" cx="2420" cy="1506" r="70"/>
  <circle fill="#FFF3F2" cx="2988" cy="1506" r="70"/>
  <path fill="white" stroke="#333333" stroke-width="19.9975" d="M1299 2836c1,3 2,7 2,11 0,65 -221,118 -493,118 -272,0 -493,-53 -493,-118 0,0 0,-1 0,-1l-1 0 0 -2720 985 0 0 2710z"/>
  <path fill="none" stroke="#00A0DF" stroke-width="19.9975" d="M1297 303c0,65 -219,118 -489,118 -270,0 -489,-53 -489,-118"/>
  <path fill="none" stroke="#00A0DF" stroke-width="19.9975" d="M1297 2679c0,66 -220,118 -491,118 -271,0 -491,-52 -491,-118"/>
  <path fill="none" stroke="#333333" stroke-width="19.9975" d="M1300 1402c0,65 -220,118 -492,118 -272,0 -493,-53 -493,-118"/>
  <path fill="#464646" d="M1174 2376c-6,0 -10,8 -10,19 0,10 4,18 10,18 5,0 9,-8 9,-18 0,-11 -4,-19 -9,-19zm0 -304c-6,0 -10,8 -10,19 0,10 4,19 10,19 5,0 9,-9 9,-19 0,-11 -4,-19 -9,-19zm-215 36c-7,0 -13,8 -13,19 0,10 6,18 13,18 7,0 13,-8 13,-18 0,-11 -6,-19 -13,-19zm170 -26c-7,0 -12,9 -12,19 0,10 5,19 12,19 6,0 11,-9 11,-19 0,-10 -5,-19 -11,-19zm-226 30c-9,0 -15,8 -15,19 0,10 6,19 15,19 8,0 15,-9 15,-19 0,-11 -7,-19 -15,-19zm-68 1c-8,0 -15,8 -15,19 0,10 7,19 15,19 8,0 15,-9 15,-19 0,-11 -7,-19 -15,-19zm381 -57c-6,0 -10,8 -10,18 0,11 4,19 10,19 5,0 9,-8 9,-19 0,-10 -4,-18 -9,-18zm36 -20c-5,0 -9,9 -9,19 0,10 4,19 9,19 6,0 10,-9 10,-19 0,-10 -4,-19 -10,-19zm-239 67c-7,0 -13,8 -13,18 0,11 6,19 13,19 7,0 13,-8 13,-19 0,-10 -6,-18 -13,-18zm65 -9c-7,0 -12,9 -12,19 0,11 5,19 12,19 6,0 11,-8 11,-19 0,-10 -5,-19 -11,-19zm96 401c-6,0 -10,9 -10,19 0,11 4,19 10,19 5,0 9,-8 9,-19 0,-10 -4,-19 -9,-19zm-215 36c-7,0 -13,8 -13,19 0,10 6,19 13,19 7,0 13,-9 13,-19 0,-11 -6,-19 -13,-19zm170 -26c-7,0 -12,9 -12,19 0,11 5,19 12,19 6,0 11,-8 11,-19 0,-10 -5,-19 -11,-19zm-226 30c-9,0 -15,9 -15,19 0,10 6,19 15,19 8,0 15,-9 15,-19 0,-10 -7,-19 -15,-19zm-68 1c-8,0 -15,9 -15,19 0,11 7,19 15,19 8,0 15,-8 15,-19 0,-10 -7,-19 -15,-19zm381 -57c-6,0 -10,8 -10,19 0,10 4,19 10,19 5,0 9,-9 9,-19 0,-11 -4,-19 -9,-19zm36 -20c-5,0 -9,9 -9,19 0,11 4,19 9,19 6,0 10,-8 10,-19 0,-10 -4,-19 -10,-19zm-239 67c-7,0 -13,8 -13,19 0,10 6,19 13,19 7,0 13,-9 13,-19 0,-11 -6,-19 -13,-19zm65 -8c-7,0 -12,8 -12,19 0,10 5,19 12,19 6,0 11,-9 11,-19 0,-11 -5,-19 -11,-19zm-642 -382c6,0 10,9 10,19 0,11 -4,19 -10,19 -5,0 -9,-8 -9,-19 0,-10 4,-19 9,-19zm215 36c7,0 13,9 13,19 0,10 -6,19 -13,19 -7,0 -13,-9 -13,-19 0,-10 6,-19 13,-19zm-170 -25c7,0 12,8 12,18 0,11 -5,19 -12,19 -6,0 -11,-8 -11,-19 0,-10 5,-18 11,-18zm226 29c9,0 15,9 15,19 0,11 -6,19 -15,19 -8,0 -14,-8 -14,-19 0,-10 6,-19 14,-19zm68 1c8,0 15,9 15,19 0,11 -7,19 -15,19 -8,0 -15,-8 -15,-19 0,-10 7,-19 15,-19zm-381 -57c6,0 10,8 10,19 0,10 -4,19 -10,19 -5,0 -9,-9 -9,-19 0,-11 4,-19 9,-19zm-36 -19c5,0 9,8 9,18 0,11 -4,19 -9,19 -6,0 -10,-8 -10,-19 0,-10 4,-18 10,-18zm239 66c7,0 13,8 13,19 0,10 -6,19 -13,19 -7,0 -13,-9 -13,-19 0,-11 6,-19 13,-19zm-65 -8c7,0 12,8 12,19 0,10 -5,19 -12,19 -6,0 -11,-9 -11,-19 0,-11 5,-19 11,-19zm642 -272c-6,0 -10,8 -10,19 0,10 4,19 10,19 5,0 9,-9 9,-19 0,-11 -4,-19 -9,-19zm-215 36c-7,0 -13,8 -13,18 0,11 6,19 13,19 7,0 13,-8 13,-19 0,-10 -6,-18 -13,-18zm170 -26c-7,0 -12,8 -12,19 0,10 5,19 12,19 6,0 11,-9 11,-19 0,-11 -5,-19 -11,-19zm-226 30c-9,0 -15,8 -15,19 0,10 6,19 15,19 8,0 15,-9 15,-19 0,-11 -7,-19 -15,-19zm-68 1c-8,0 -15,8 -15,19 0,10 7,19 15,19 8,0 15,-9 15,-19 0,-11 -7,-19 -15,-19zm381 -58c-6,0 -10,9 -10,19 0,11 4,19 10,19 5,0 9,-8 9,-19 0,-10 -4,-19 -9,-19zm36 -19c-5,0 -9,8 -9,19 0,10 4,19 9,19 6,0 10,-9 10,-19 0,-11 -4,-19 -10,-19zm-239 66c-7,0 -13,9 -13,19 0,11 6,19 13,19 7,0 13,-8 13,-19 0,-10 -6,-19 -13,-19zm65 -8c-7,0 -12,9 -12,19 0,11 5,19 12,19 6,0 11,-8 11,-19 0,-10 -5,-19 -11,-19zm-642 586c6,0 10,9 10,19 0,11 -4,19 -10,19 -5,0 -9,-8 -9,-19 0,-10 4,-19 9,-19zm215 36c7,0 13,8 13,19 0,10 -6,19 -13,19 -7,0 -13,-9 -13,-19 0,-11 6,-19 13,-19zm-170 -26c7,0 12,9 12,19 0,11 -5,19 -12,19 -6,0 -11,-8 -11,-19 0,-10 5,-19 11,-19zm226 30c9,0 15,9 15,19 0,10 -6,19 -15,19 -8,0 -14,-9 -14,-19 0,-10 6,-19 14,-19zm68 1c8,0 15,9 15,19 0,11 -7,19 -15,19 -8,0 -15,-8 -15,-19 0,-10 7,-19 15,-19zm-381 -57c6,0 10,8 10,19 0,10 -4,19 -10,19 -5,0 -9,-9 -9,-19 0,-11 4,-19 9,-19zm-36 -20c5,0 9,9 9,19 0,11 -4,19 -9,19 -6,0 -10,-8 -10,-19 0,-10 4,-19 10,-19zm239 67c7,0 13,8 13,19 0,10 -6,19 -13,19 -7,0 -13,-9 -13,-19 0,-11 6,-19 13,-19zm-65 -8c7,0 12,8 12,19 0,10 -5,19 -12,19 -6,0 -11,-9 -11,-19 0,-11 5,-19 11,-19zm-96 -325c6,0 10,8 10,18 0,11 -4,19 -10,19 -5,0 -9,-8 -9,-19 0,-10 4,-18 9,-18zm215 35c7,0 13,9 13,19 0,11 -6,19 -13,19 -7,0 -13,-8 -13,-19 0,-10 6,-19 13,-19zm-170 -25c7,0 12,8 12,19 0,10 -5,19 -12,19 -6,0 -11,-9 -11,-19 0,-11 5,-19 11,-19zm226 29c9,0 15,9 15,19 0,11 -6,19 -15,19 -8,0 -14,-8 -14,-19 0,-10 6,-19 14,-19zm68 1c8,0 15,9 15,19 0,11 -7,19 -15,19 -8,0 -15,-8 -15,-19 0,-10 7,-19 15,-19zm-381 -57c6,0 10,9 10,19 0,11 -4,19 -10,19 -5,0 -9,-8 -9,-19 0,-10 4,-19 9,-19zm-36 -19c5,0 9,8 9,19 0,10 -4,19 -9,19 -6,0 -10,-9 -10,-19 0,-11 4,-19 10,-19zm239 66c7,0 13,9 13,19 0,11 -6,19 -13,19 -7,0 -13,-8 -13,-19 0,-10 6,-19 13,-19zm-65 -8c7,0 12,9 12,19 0,10 -5,19 -12,19 -6,0 -11,-9 -11,-19 0,-10 5,-19 11,-19zm-96 40c6,0 10,8 10,19 0,10 -4,19 -10,19 -5,0 -9,-9 -9,-19 0,-11 4,-19 9,-19zm215 36c7,0 13,8 13,19 0,10 -6,19 -13,19 -7,0 -13,-9 -13,-19 0,-11 6,-19 13,-19zm-170 -26c7,0 12,9 12,19 0,11 -5,19 -12,19 -6,0 -11,-8 -11,-19 0,-10 5,-19 11,-19zm226 30c9,0 15,8 15,19 0,10 -6,19 -15,19 -8,0 -14,-9 -14,-19 0,-11 6,-19 14,-19zm68 1c8,0 15,8 15,19 0,10 -7,19 -15,19 -8,0 -15,-9 -15,-19 0,-11 7,-19 15,-19zm-381 -57c6,0 10,8 10,18 0,11 -4,19 -10,19 -5,0 -9,-8 -9,-19 0,-10 4,-18 9,-18zm-36 -20c5,0 9,9 9,19 0,10 -4,19 -9,19 -6,0 -10,-9 -10,-19 0,-10 4,-19 10,-19zm239 67c7,0 13,8 13,19 0,10 -6,18 -13,18 -7,0 -13,-8 -13,-18 0,-11 6,-19 13,-19zm-65 -9c7,0 12,9 12,19 0,11 -5,19 -12,19 -6,0 -11,-8 -11,-19 0,-10 5,-19 11,-19zm-96 -750c6,0 10,8 10,19 0,10 -4,19 -10,19 -5,0 -9,-9 -9,-19 0,-11 4,-19 9,-19zm215 36c7,0 13,8 13,19 0,10 -6,18 -13,18 -7,0 -13,-8 -13,-18 0,-11 6,-19 13,-19zm-170 -26c7,0 12,9 12,19 0,10 -5,19 -12,19 -6,0 -11,-9 -11,-19 0,-10 5,-19 11,-19zm226 30c9,0 15,8 15,19 0,10 -6,19 -15,19 -8,0 -14,-9 -14,-19 0,-11 6,-19 14,-19zm68 1c8,0 15,8 15,19 0,10 -7,19 -15,19 -8,0 -15,-9 -15,-19 0,-11 7,-19 15,-19zm-381 -58c6,0 10,9 10,19 0,11 -4,19 -10,19 -5,0 -9,-8 -9,-19 0,-10 4,-19 9,-19zm-36 -19c5,0 9,9 9,19 0,10 -4,19 -9,19 -6,0 -10,-9 -10,-19 0,-10 4,-19 10,-19zm239 67c7,0 13,8 13,18 0,11 -6,19 -13,19 -7,0 -13,-8 -13,-19 0,-10 6,-18 13,-18zm-65 -9c7,0 12,9 12,19 0,11 -5,19 -12,19 -6,0 -11,-8 -11,-19 0,-10 5,-19 11,-19zm-96 1067c6,0 10,8 10,19 0,10 -4,19 -10,19 -5,0 -9,-9 -9,-19 0,-11 4,-19 9,-19zm215 36c7,0 13,8 13,19 0,10 -6,19 -13,19 -7,0 -13,-9 -13,-19 0,-11 6,-19 13,-19zm-170 -26c7,0 12,9 12,19 0,10 -5,19 -12,19 -6,0 -11,-9 -11,-19 0,-10 5,-19 11,-19zm226 30c9,0 15,8 15,19 0,10 -6,19 -15,19 -8,0 -14,-9 -14,-19 0,-11 6,-19 14,-19zm68 1c8,0 15,8 15,19 0,10 -7,19 -15,19 -8,0 -15,-9 -15,-19 0,-11 7,-19 15,-19zm-381 -57c6,0 10,8 10,18 0,11 -4,19 -10,19 -5,0 -9,-8 -9,-19 0,-10 4,-18 9,-18zm-36 -20c5,0 9,9 9,19 0,10 -4,19 -9,19 -6,0 -10,-9 -10,-19 0,-10 4,-19 10,-19zm239 67c7,0 13,8 13,18 0,11 -6,19 -13,19 -7,0 -13,-8 -13,-19 0,-10 6,-18 13,-18zm-65 -9c7,0 12,9 12,19 0,11 -5,19 -12,19 -6,0 -11,-8 -11,-19 0,-10 5,-19 11,-19zm-96 -872c6,0 10,9 10,19 0,10 -4,19 -10,19 -5,0 -9,-9 -9,-19 0,-10 4,-19 9,-19zm215 36c7,0 13,8 13,19 0,10 -6,19 -13,19 -7,0 -13,-9 -13,-19 0,-11 6,-19 13,-19zm-170 -26c7,0 12,9 12,19 0,11 -5,19 -12,19 -6,0 -11,-8 -11,-19 0,-10 5,-19 11,-19zm226 30c9,0 15,8 15,19 0,10 -6,19 -15,19 -8,0 -14,-9 -14,-19 0,-11 6,-19 14,-19zm68 1c8,0 15,8 15,19 0,10 -7,19 -15,19 -8,0 -15,-9 -15,-19 0,-11 7,-19 15,-19zm-381 -57c6,0 10,8 10,19 0,10 -4,19 -10,19 -5,0 -9,-9 -9,-19 0,-11 4,-19 9,-19zm-36 -20c5,0 9,9 9,19 0,11 -4,19 -9,19 -6,0 -10,-8 -10,-19 0,-10 4,-19 10,-19zm239 67c7,0 13,8 13,19 0,10 -6,19 -13,19 -7,0 -13,-9 -13,-19 0,-11 6,-19 13,-19zm-65 -8c7,0 12,8 12,19 0,10 -5,18 -12,18 -6,0 -11,-8 -11,-18 0,-11 5,-19 11,-19zm-96 587c6,0 10,8 10,19 0,10 -4,18 -10,18 -5,0 -9,-8 -9,-18 0,-11 4,-19 9,-19zm215 35c7,0 13,9 13,19 0,11 -6,19 -13,19 -7,0 -13,-8 -13,-19 0,-10 6,-19 13,-19zm-170 -25c7,0 12,8 12,19 0,10 -5,19 -12,19 -6,0 -11,-9 -11,-19 0,-11 5,-19 11,-19zm226 29c9,0 15,9 15,19 0,11 -6,19 -15,19 -8,0 -14,-8 -14,-19 0,-10 6,-19 14,-19zm68 1c8,0 15,9 15,19 0,11 -7,19 -15,19 -8,0 -15,-8 -15,-19 0,-10 7,-19 15,-19zm-381 -57c6,0 10,9 10,19 0,11 -4,19 -10,19 -5,0 -9,-8 -9,-19 0,-10 4,-19 9,-19zm-36 -19c5,0 9,8 9,19 0,10 -4,19 -9,19 -6,0 -10,-9 -10,-19 0,-11 4,-19 10,-19zm239 66c7,0 13,9 13,19 0,11 -6,19 -13,19 -7,0 -13,-8 -13,-19 0,-10 6,-19 13,-19zm-65 -8c7,0 12,9 12,19 0,10 -5,19 -12,19 -6,0 -11,-9 -11,-19 0,-10 5,-19 11,-19zm642 -751c-6,0 -10,9 -10,19 0,11 4,19 10,19 5,0 9,-8 9,-19 0,-10 -4,-19 -9,-19zm-215 36c-7,0 -13,9 -13,19 0,11 6,19 13,19 7,0 13,-8 13,-19 0,-10 -6,-19 -13,-19zm170 -25c-7,0 -12,8 -12,19 0,10 5,19 12,19 6,0 11,-9 11,-19 0,-11 -5,-19 -11,-19zm-226 29c-9,0 -15,9 -15,19 0,11 6,19 15,19 8,0 15,-8 15,-19 0,-10 -7,-19 -15,-19zm-68 1c-8,0 -15,9 -15,19 0,11 7,19 15,19 8,0 15,-8 15,-19 0,-10 -7,-19 -15,-19zm381 -57c-6,0 -10,9 -10,19 0,10 4,19 10,19 5,0 9,-9 9,-19 0,-10 -4,-19 -9,-19zm36 -19c-5,0 -9,8 -9,19 0,10 4,19 9,19 6,0 10,-9 10,-19 0,-11 -4,-19 -10,-19zm-239 66c-7,0 -13,9 -13,19 0,11 6,19 13,19 7,0 13,-8 13,-19 0,-10 -6,-19 -13,-19zm65 -8c-7,0 -12,8 -12,19 0,10 5,19 12,19 6,0 11,-9 11,-19 0,-11 -5,-19 -11,-19zm-642 -23c6,0 10,9 10,19 0,11 -4,19 -10,19 -5,0 -9,-8 -9,-19 0,-10 4,-19 9,-19zm215 36c7,0 13,9 13,19 0,11 -6,19 -13,19 -7,0 -13,-8 -13,-19 0,-10 6,-19 13,-19zm-170 -25c7,0 12,8 12,19 0,10 -5,19 -12,19 -6,0 -11,-9 -11,-19 0,-11 5,-19 11,-19zm226 29c9,0 15,9 15,19 0,11 -6,19 -15,19 -8,0 -14,-8 -14,-19 0,-10 6,-19 14,-19zm68 1c8,0 15,9 15,19 0,11 -7,19 -15,19 -8,0 -15,-8 -15,-19 0,-10 7,-19 15,-19zm-381 -57c6,0 10,9 10,19 0,10 -4,19 -10,19 -5,0 -9,-9 -9,-19 0,-10 4,-19 9,-19zm-36 -19c5,0 9,8 9,19 0,10 -4,19 -9,19 -6,0 -10,-9 -10,-19 0,-11 4,-19 10,-19zm239 66c7,0 13,9 13,19 0,11 -6,19 -13,19 -7,0 -13,-8 -13,-19 0,-10 6,-19 13,-19zm-65 -8c7,0 12,8 12,19 0,10 -5,19 -12,19 -6,0 -11,-9 -11,-19 0,-11 5,-19 11,-19zm642 523c-6,0 -10,8 -10,18 0,11 4,19 10,19 5,0 9,-8 9,-19 0,-10 -4,-18 -9,-18zm-215 35c-7,0 -13,9 -13,19 0,11 6,19 13,19 7,0 13,-8 13,-19 0,-10 -6,-19 -13,-19zm170 -25c-7,0 -12,8 -12,19 0,10 5,19 12,19 6,0 11,-9 11,-19 0,-11 -5,-19 -11,-19zm-226 29c-9,0 -15,9 -15,19 0,11 6,19 15,19 8,0 15,-8 15,-19 0,-10 -7,-19 -15,-19zm-68 1c-8,0 -15,9 -15,19 0,11 7,19 15,19 8,0 15,-8 15,-19 0,-10 -7,-19 -15,-19zm381 -57c-6,0 -10,9 -10,19 0,11 4,19 10,19 5,0 9,-8 9,-19 0,-10 -4,-19 -9,-19zm36 -19c-5,0 -9,8 -9,19 0,10 4,19 9,19 6,0 10,-9 10,-19 0,-11 -4,-19 -10,-19zm-239 66c-7,0 -13,9 -13,19 0,11 6,19 13,19 7,0 13,-8 13,-19 0,-10 -6,-19 -13,-19zm65 -8c-7,0 -12,9 -12,19 0,10 5,19 12,19 6,0 11,-9 11,-19 0,-10 -5,-19 -11,-19zm-642 96c6,0 10,9 10,19 0,11 -4,19 -10,19 -5,0 -9,-8 -9,-19 0,-10 4,-19 9,-19zm215 36c7,0 13,8 13,19 0,10 -6,19 -13,19 -7,0 -13,-9 -13,-19 0,-11 6,-19 13,-19zm-170 -26c7,0 12,9 12,19 0,11 -5,19 -12,19 -6,0 -11,-8 -11,-19 0,-10 5,-19 11,-19zm226 30c9,0 15,9 15,19 0,10 -6,19 -15,19 -8,0 -14,-9 -14,-19 0,-10 6,-19 14,-19zm68 1c8,0 15,9 15,19 0,10 -7,19 -15,19 -8,0 -15,-9 -15,-19 0,-10 7,-19 15,-19zm-381 -57c6,0 10,8 10,19 0,10 -4,19 -10,19 -5,0 -9,-9 -9,-19 0,-11 4,-19 9,-19zm-36 -20c5,0 9,9 9,19 0,11 -4,19 -9,19 -6,0 -10,-8 -10,-19 0,-10 4,-19 10,-19zm239 67c7,0 13,8 13,19 0,10 -6,19 -13,19 -7,0 -13,-9 -13,-19 0,-11 6,-19 13,-19zm-65 -8c7,0 12,8 12,19 0,10 -5,18 -12,18 -6,0 -11,-8 -11,-18 0,-11 5,-19 11,-19zm642 -79c-6,0 -10,8 -10,19 0,10 4,19 10,19 5,0 9,-9 9,-19 0,-11 -4,-19 -9,-19zm-215 36c-7,0 -13,8 -13,19 0,10 6,19 13,19 7,0 13,-9 13,-19 0,-11 -6,-19 -13,-19zm170 -26c-7,0 -12,9 -12,19 0,11 5,19 12,19 6,0 11,-8 11,-19 0,-10 -5,-19 -11,-19zm-226 30c-9,0 -15,8 -15,19 0,10 6,19 15,19 8,0 15,-9 15,-19 0,-11 -7,-19 -15,-19zm-68 1c-8,0 -15,8 -15,19 0,10 7,19 15,19 8,0 15,-9 15,-19 0,-11 -7,-19 -15,-19zm381 -57c-6,0 -10,8 -10,18 0,11 4,19 10,19 5,0 9,-8 9,-19 0,-10 -4,-18 -9,-18zm36 -20c-5,0 -9,9 -9,19 0,10 4,19 9,19 6,0 10,-9 10,-19 0,-10 -4,-19 -10,-19zm-239 67c-7,0 -13,8 -13,19 0,10 6,18 13,18 7,0 13,-8 13,-18 0,-11 -6,-19 -13,-19zm65 -9c-7,0 -12,9 -12,19 0,11 5,19 12,19 6,0 11,-8 11,-19 0,-10 -5,-19 -11,-19zm96 -141c-6,0 -10,9 -10,19 0,11 4,19 10,19 5,0 9,-8 9,-19 0,-10 -4,-19 -9,-19zm-215 36c-7,0 -13,9 -13,19 0,10 6,19 13,19 7,0 13,-9 13,-19 0,-10 -6,-19 -13,-19zm170 -25c-7,0 -12,8 -12,18 0,11 5,19 12,19 6,0 11,-8 11,-19 0,-10 -5,-18 -11,-18zm-226 29c-9,0 -15,9 -15,19 0,11 6,19 15,19 8,0 15,-8 15,-19 0,-10 -7,-19 -15,-19zm-68 1c-8,0 -15,9 -15,19 0,11 7,19 15,19 8,0 15,-8 15,-19 0,-10 -7,-19 -15,-19zm381 -57c-6,0 -10,8 -10,19 0,10 4,19 10,19 5,0 9,-9 9,-19 0,-11 -4,-19 -9,-19zm36 -19c-5,0 -9,8 -9,18 0,11 4,19 9,19 6,0 10,-8 10,-19 0,-10 -4,-18 -10,-18zm-239 66c-7,0 -13,8 -13,19 0,10 6,19 13,19 7,0 13,-9 13,-19 0,-11 -6,-19 -13,-19zm65 -8c-7,0 -12,8 -12,19 0,10 5,19 12,19 6,0 11,-9 11,-19 0,-11 -5,-19 -11,-19zm96 457c-6,0 -10,8 -10,19 0,10 4,19 10,19 5,0 9,-9 9,-19 0,-11 -4,-19 -9,-19zm-215 36c-7,0 -13,8 -13,19 0,10 6,19 13,19 7,0 13,-9 13,-19 0,-11 -6,-19 -13,-19zm170 -26c-7,0 -12,9 -12,19 0,10 5,19 12,19 6,0 11,-9 11,-19 0,-10 -5,-19 -11,-19zm-226 30c-9,0 -15,8 -15,19 0,10 6,19 15,19 8,0 15,-9 15,-19 0,-11 -7,-19 -15,-19zm-68 1c-8,0 -15,8 -15,19 0,10 7,19 15,19 8,0 15,-9 15,-19 0,-11 -7,-19 -15,-19zm381 -57c-6,0 -10,8 -10,18 0,11 4,19 10,19 5,0 9,-8 9,-19 0,-10 -4,-18 -9,-18zm36 -20c-5,0 -9,9 -9,19 0,10 4,19 9,19 6,0 10,-9 10,-19 0,-10 -4,-19 -10,-19zm-239 67c-7,0 -13,8 -13,18 0,11 6,19 13,19 7,0 13,-8 13,-19 0,-10 -6,-18 -13,-18zm65 -9c-7,0 -12,9 -12,19 0,11 5,19 12,19 6,0 11,-8 11,-19 0,-10 -5,-19 -11,-19zm96 -327c-6,0 -10,9 -10,19 0,11 4,19 10,19 5,0 9,-8 9,-19 0,-10 -4,-19 -9,-19zm-215 36c-7,0 -13,8 -13,19 0,10 6,19 13,19 7,0 13,-9 13,-19 0,-11 -6,-19 -13,-19zm170 -26c-7,0 -12,9 -12,19 0,11 5,19 12,19 6,0 11,-8 11,-19 0,-10 -5,-19 -11,-19zm-226 30c-9,0 -15,9 -15,19 0,10 6,19 15,19 8,0 15,-9 15,-19 0,-10 -7,-19 -15,-19zm-68 1c-8,0 -15,9 -15,19 0,10 7,19 15,19 8,0 15,-9 15,-19 0,-10 -7,-19 -15,-19zm381 -57c-6,0 -10,8 -10,19 0,10 4,19 10,19 5,0 9,-9 9,-19 0,-11 -4,-19 -9,-19zm36 -20c-5,0 -9,9 -9,19 0,11 4,19 9,19 6,0 10,-8 10,-19 0,-10 -4,-19 -10,-19zm-239 67c-7,0 -13,8 -13,19 0,10 6,19 13,19 7,0 13,-9 13,-19 0,-11 -6,-19 -13,-19zm65 -8c-7,0 -12,8 -12,19 0,10 5,18 12,18 6,0 11,-8 11,-18 0,-11 -5,-19 -11,-19zm96 345c-6,0 -10,9 -10,19 0,11 4,19 10,19 5,0 9,-8 9,-19 0,-10 -4,-19 -9,-19zm-215 36c-7,0 -13,9 -13,19 0,10 6,19 13,19 7,0 13,-9 13,-19 0,-10 -6,-19 -13,-19zm170 -25c-7,0 -12,8 -12,18 0,11 5,19 12,19 6,0 11,-8 11,-19 0,-10 -5,-18 -11,-18zm-226 29c-9,0 -15,9 -15,19 0,11 6,19 15,19 8,0 15,-8 15,-19 0,-10 -7,-19 -15,-19zm-68 1c-8,0 -15,9 -15,19 0,11 7,19 15,19 8,0 15,-8 15,-19 0,-10 -7,-19 -15,-19zm381 -57c-6,0 -10,8 -10,19 0,10 4,19 10,19 5,0 9,-9 9,-19 0,-11 -4,-19 -9,-19zm36 -19c-5,0 -9,8 -9,18 0,11 4,19 9,19 6,0 10,-8 10,-19 0,-10 -4,-18 -10,-18zm-239 66c-7,0 -13,8 -13,19 0,10 6,19 13,19 7,0 13,-9 13,-19 0,-11 -6,-19 -13,-19zm65 -8c-7,0 -12,8 -12,19 0,10 5,19 12,19 6,0 11,-9 11,-19 0,-11 -5,-19 -11,-19zm96 -1119c-6,0 -10,9 -10,19 0,10 4,19 10,19 5,0 9,-9 9,-19 0,-10 -4,-19 -9,-19zm-215 36c-7,0 -13,8 -13,19 0,10 6,19 13,19 7,0 13,-9 13,-19 0,-11 -6,-19 -13,-19zm170 -26c-7,0 -12,9 -12,19 0,11 5,19 12,19 6,0 11,-8 11,-19 0,-10 -5,-19 -11,-19zm-226 30c-9,0 -15,8 -15,19 0,10 6,19 15,19 8,0 15,-9 15,-19 0,-11 -7,-19 -15,-19zm-68 1c-8,0 -15,8 -15,19 0,10 7,19 15,19 8,0 15,-9 15,-19 0,-11 -7,-19 -15,-19zm381 -57c-6,0 -10,8 -10,19 0,10 4,19 10,19 5,0 9,-9 9,-19 0,-11 -4,-19 -9,-19zm36 -20c-5,0 -9,9 -9,19 0,11 4,19 9,19 6,0 10,-8 10,-19 0,-10 -4,-19 -10,-19zm-239 67c-7,0 -13,8 -13,19 0,10 6,19 13,19 7,0 13,-9 13,-19 0,-11 -6,-19 -13,-19zm65 -8c-7,0 -12,8 -12,18 0,11 5,19 12,19 6,0 11,-8 11,-19 0,-10 -5,-18 -11,-18zm-642 954c6,0 10,8 10,19 0,10 -4,18 -10,18 -5,0 -9,-8 -9,-18 0,-11 4,-19 9,-19zm215 35c7,0 13,9 13,19 0,11 -6,19 -13,19 -7,0 -13,-8 -13,-19 0,-10 6,-19 13,-19zm-170 -25c7,0 12,8 12,19 0,10 -5,19 -12,19 -6,0 -11,-9 -11,-19 0,-11 5,-19 11,-19zm226 30c9,0 15,8 15,18 0,11 -6,19 -15,19 -8,0 -14,-8 -14,-19 0,-10 6,-18 14,-18zm68 1c8,0 15,8 15,18 0,11 -7,19 -15,19 -8,0 -15,-8 -15,-19 0,-10 7,-18 15,-18zm-381 -58c6,0 10,9 10,19 0,11 -4,19 -10,19 -5,0 -9,-8 -9,-19 0,-10 4,-19 9,-19zm-36 -19c5,0 9,8 9,19 0,10 -4,19 -9,19 -6,0 -10,-9 -10,-19 0,-11 4,-19 10,-19zm239 66c7,0 13,9 13,19 0,11 -6,19 -13,19 -7,0 -13,-8 -13,-19 0,-10 6,-19 13,-19zm-65 -8c7,0 12,9 12,19 0,11 -5,19 -12,19 -6,0 -11,-8 -11,-19 0,-10 5,-19 11,-19zm642 -1055c-6,0 -10,8 -10,19 0,10 4,19 10,19 5,0 9,-9 9,-19 0,-11 -4,-19 -9,-19zm-215 36c-7,0 -13,8 -13,19 0,10 6,18 13,18 7,0 13,-8 13,-18 0,-11 -6,-19 -13,-19zm170 -26c-7,0 -12,9 -12,19 0,10 5,19 12,19 6,0 11,-9 11,-19 0,-10 -5,-19 -11,-19zm-226 30c-9,0 -15,8 -15,19 0,10 6,19 15,19 8,0 15,-9 15,-19 0,-11 -7,-19 -15,-19zm-68 1c-8,0 -15,8 -15,19 0,10 7,19 15,19 8,0 15,-9 15,-19 0,-11 -7,-19 -15,-19zm381 -58c-6,0 -10,9 -10,19 0,11 4,19 10,19 5,0 9,-8 9,-19 0,-10 -4,-19 -9,-19zm36 -19c-5,0 -9,9 -9,19 0,10 4,19 9,19 6,0 10,-9 10,-19 0,-10 -4,-19 -10,-19zm-239 67c-7,0 -13,8 -13,18 0,11 6,19 13,19 7,0 13,-8 13,-19 0,-10 -6,-18 -13,-18zm65 -9c-7,0 -12,9 -12,19 0,11 5,19 12,19 6,0 11,-8 11,-19 0,-10 -5,-19 -11,-19zm-642 155c6,0 10,8 10,19 0,10 -4,19 -10,19 -5,0 -9,-9 -9,-19 0,-11 4,-19 9,-19zm215 36c7,0 13,8 13,18 0,11 -6,19 -13,19 -7,0 -13,-8 -13,-19 0,-10 6,-18 13,-18zm-170 -26c7,0 12,8 12,19 0,10 -5,19 -12,19 -6,0 -11,-9 -11,-19 0,-11 5,-19 11,-19zm226 30c9,0 15,8 15,19 0,10 -6,18 -15,18 -8,0 -14,-8 -14,-18 0,-11 6,-19 14,-19zm68 1c8,0 15,8 15,19 0,10 -7,18 -15,18 -8,0 -15,-8 -15,-18 0,-11 7,-19 15,-19zm-381 -58c6,0 10,9 10,19 0,11 -4,19 -10,19 -5,0 -9,-8 -9,-19 0,-10 4,-19 9,-19zm-36 -19c5,0 9,8 9,19 0,10 -4,19 -9,19 -6,0 -10,-9 -10,-19 0,-11 4,-19 10,-19zm239 66c7,0 13,9 13,19 0,11 -6,19 -13,19 -7,0 -13,-8 -13,-19 0,-10 6,-19 13,-19zm-65 -8c7,0 12,9 12,19 0,11 -5,19 -12,19 -6,0 -11,-8 -11,-19 0,-10 5,-19 11,-19zm-96 -143c6,0 10,9 10,19 0,10 -4,19 -10,19 -5,0 -9,-9 -9,-19 0,-10 4,-19 9,-19zm215 36c7,0 13,8 13,19 0,10 -6,19 -13,19 -7,0 -13,-9 -13,-19 0,-11 6,-19 13,-19zm-170 -26c7,0 12,9 12,19 0,11 -5,19 -12,19 -6,0 -11,-8 -11,-19 0,-10 5,-19 11,-19zm226 30c9,0 15,8 15,19 0,10 -6,19 -15,19 -8,0 -14,-9 -14,-19 0,-11 6,-19 14,-19zm68 1c8,0 15,8 15,19 0,10 -7,19 -15,19 -8,0 -15,-9 -15,-19 0,-11 7,-19 15,-19zm-381 -57c6,0 10,8 10,19 0,10 -4,19 -10,19 -5,0 -9,-9 -9,-19 0,-11 4,-19 9,-19zm-36 -20c5,0 9,9 9,19 0,11 -4,19 -9,19 -6,0 -10,-8 -10,-19 0,-10 4,-19 10,-19zm239 67c7,0 13,8 13,19 0,10 -6,19 -13,19 -7,0 -13,-9 -13,-19 0,-11 6,-19 13,-19zm-65 -8c7,0 12,8 12,18 0,11 -5,19 -12,19 -6,0 -11,-8 -11,-19 0,-10 5,-18 11,-18zm-96 826c6,0 10,8 10,19 0,10 -4,19 -10,19 -5,0 -9,-9 -9,-19 0,-11 4,-19 9,-19zm215 36c7,0 13,8 13,19 0,10 -6,18 -13,18 -7,0 -13,-8 -13,-18 0,-11 6,-19 13,-19zm-170 -26c7,0 12,9 12,19 0,10 -5,19 -12,19 -6,0 -11,-9 -11,-19 0,-10 5,-19 11,-19zm226 30c9,0 15,8 15,19 0,10 -6,19 -15,19 -8,0 -14,-9 -14,-19 0,-11 6,-19 14,-19zm68 1c8,0 15,8 15,19 0,10 -7,19 -15,19 -8,0 -15,-9 -15,-19 0,-11 7,-19 15,-19zm-381 -58c6,0 10,9 10,19 0,11 -4,19 -10,19 -5,0 -9,-8 -9,-19 0,-10 4,-19 9,-19zm-36 -19c5,0 9,9 9,19 0,10 -4,19 -9,19 -6,0 -10,-9 -10,-19 0,-10 4,-19 10,-19zm239 67c7,0 13,8 13,18 0,11 -6,19 -13,19 -7,0 -13,-8 -13,-19 0,-10 6,-18 13,-18zm-65 -9c7,0 12,9 12,19 0,11 -5,19 -12,19 -6,0 -11,-8 -11,-19 0,-10 5,-19 11,-19zm642 -499c-6,0 -10,9 -10,19 0,11 4,19 10,19 5,0 9,-8 9,-19 0,-10 -4,-19 -9,-19zm-215 36c-7,0 -13,9 -13,19 0,10 6,19 13,19 7,0 13,-9 13,-19 0,-10 -6,-19 -13,-19zm170 -25c-7,0 -12,8 -12,18 0,11 5,19 12,19 6,0 11,-8 11,-19 0,-10 -5,-18 -11,-18zm-226 29c-9,0 -15,9 -15,19 0,11 6,19 15,19 8,0 15,-8 15,-19 0,-10 -7,-19 -15,-19zm-68 1c-8,0 -15,9 -15,19 0,11 7,19 15,19 8,0 15,-8 15,-19 0,-10 -7,-19 -15,-19zm381 -57c-6,0 -10,8 -10,19 0,10 4,19 10,19 5,0 9,-9 9,-19 0,-11 -4,-19 -9,-19zm36 -20c-5,0 -9,9 -9,19 0,11 4,19 9,19 6,0 10,-8 10,-19 0,-10 -4,-19 -10,-19zm-239 67c-7,0 -13,8 -13,19 0,10 6,19 13,19 7,0 13,-9 13,-19 0,-11 -6,-19 -13,-19zm65 -8c-7,0 -12,8 -12,19 0,10 5,19 12,19 6,0 11,-9 11,-19 0,-11 -5,-19 -11,-19zm96 -212c-6,0 -10,9 -10,19 0,10 4,19 10,19 5,0 9,-9 9,-19 0,-10 -4,-19 -9,-19zm-215 36c-7,0 -13,8 -13,19 0,10 6,19 13,19 7,0 13,-9 13,-19 0,-11 -6,-19 -13,-19zm170 -26c-7,0 -12,9 -12,19 0,11 5,19 12,19 6,0 11,-8 11,-19 0,-10 -5,-19 -11,-19zm-226 30c-9,0 -15,8 -15,19 0,10 6,19 15,19 8,0 15,-9 15,-19 0,-11 -7,-19 -15,-19zm-68 1c-8,0 -15,8 -15,19 0,10 7,19 15,19 8,0 15,-9 15,-19 0,-11 -7,-19 -15,-19zm381 -57c-6,0 -10,8 -10,19 0,10 4,19 10,19 5,0 9,-9 9,-19 0,-11 -4,-19 -9,-19zm36 -20c-5,0 -9,9 -9,19 0,11 4,19 9,19 6,0 10,-8 10,-19 0,-10 -4,-19 -10,-19zm-239 67c-7,0 -13,8 -13,19 0,10 6,19 13,19 7,0 13,-9 13,-19 0,-11 -6,-19 -13,-19zm65 -8c-7,0 -12,8 -12,19 0,10 5,18 12,18 6,0 11,-8 11,-18 0,-11 -5,-19 -11,-19zm96 771c-6,0 -10,8 -10,19 0,10 4,18 10,18 5,0 9,-8 9,-18 0,-11 -4,-19 -9,-19zm-215 35c-7,0 -13,9 -13,19 0,11 6,19 13,19 7,0 13,-8 13,-19 0,-10 -6,-19 -13,-19zm170 -25c-7,0 -12,8 -12,19 0,10 5,19 12,19 6,0 11,-9 11,-19 0,-11 -5,-19 -11,-19zm-226 30c-9,0 -15,8 -15,18 0,11 6,19 15,19 8,0 15,-8 15,-19 0,-10 -7,-18 -15,-18zm-68 1c-8,0 -15,8 -15,18 0,11 7,19 15,19 8,0 15,-8 15,-19 0,-10 -7,-18 -15,-18zm381 -58c-6,0 -10,9 -10,19 0,11 4,19 10,19 5,0 9,-8 9,-19 0,-10 -4,-19 -9,-19zm36 -19c-5,0 -9,8 -9,19 0,10 4,19 9,19 6,0 10,-9 10,-19 0,-11 -4,-19 -10,-19zm-239 66c-7,0 -13,9 -13,19 0,11 6,19 13,19 7,0 13,-8 13,-19 0,-10 -6,-19 -13,-19zm65 -8c-7,0 -12,9 -12,19 0,11 5,19 12,19 6,0 11,-8 11,-19 0,-10 -5,-19 -11,-19zm96 -878c-6,0 -10,8 -10,19 0,10 4,19 10,19 5,0 9,-9 9,-19 0,-11 -4,-19 -9,-19zm-215 36c-7,0 -13,8 -13,18 0,11 6,19 13,19 7,0 13,-8 13,-19 0,-10 -6,-18 -13,-18zm170 -26c-7,0 -12,8 -12,19 0,10 5,19 12,19 6,0 11,-9 11,-19 0,-11 -5,-19 -11,-19zm-226 30c-9,0 -15,8 -15,19 0,10 6,18 15,18 8,0 15,-8 15,-18 0,-11 -7,-19 -15,-19zm-68 1c-8,0 -15,8 -15,19 0,10 7,18 15,18 8,0 15,-8 15,-18 0,-11 -7,-19 -15,-19zm381 -58c-6,0 -10,9 -10,19 0,11 4,19 10,19 5,0 9,-8 9,-19 0,-10 -4,-19 -9,-19zm36 -19c-5,0 -9,8 -9,19 0,10 4,19 9,19 6,0 10,-9 10,-19 0,-11 -4,-19 -10,-19zm-239 66c-7,0 -13,9 -13,19 0,11 6,19 13,19 7,0 13,-8 13,-19 0,-10 -6,-19 -13,-19zm65 -8c-7,0 -12,9 -12,19 0,11 5,19 12,19 6,0 11,-8 11,-19 0,-10 -5,-19 -11,-19zm-642 96c6,0 10,9 10,19 0,11 -4,19 -10,19 -5,0 -9,-8 -9,-19 0,-10 4,-19 9,-19zm215 36c7,0 13,9 13,19 0,11 -6,19 -13,19 -7,0 -13,-8 -13,-19 0,-10 6,-19 13,-19zm-170 -25c7,0 12,8 12,19 0,10 -5,18 -12,18 -6,0 -11,-8 -11,-18 0,-11 5,-19 11,-19zm226 29c9,0 15,9 15,19 0,11 -6,19 -15,19 -8,0 -14,-8 -14,-19 0,-10 6,-19 14,-19zm68 1c8,0 15,9 15,19 0,11 -7,19 -15,19 -8,0 -15,-8 -15,-19 0,-10 7,-19 15,-19zm-381 -57c6,0 10,8 10,19 0,10 -4,19 -10,19 -5,0 -9,-9 -9,-19 0,-11 4,-19 9,-19zm-36 -19c5,0 9,8 9,18 0,11 -4,19 -9,19 -6,0 -10,-8 -10,-19 0,-10 4,-18 10,-18zm239 66c7,0 13,8 13,19 0,10 -6,19 -13,19 -7,0 -13,-9 -13,-19 0,-11 6,-19 13,-19zm-65 -8c7,0 12,8 12,19 0,10 -5,19 -12,19 -6,0 -11,-9 -11,-19 0,-11 5,-19 11,-19zm-96 171c6,0 10,8 10,19 0,10 -4,18 -10,18 -5,0 -9,-8 -9,-18 0,-11 4,-19 9,-19zm215 35c7,0 13,9 13,19 0,11 -6,19 -13,19 -7,0 -13,-8 -13,-19 0,-10 6,-19 13,-19zm-170 -25c7,0 12,8 12,19 0,10 -5,19 -12,19 -6,0 -11,-9 -11,-19 0,-11 5,-19 11,-19zm226 30c9,0 15,8 15,18 0,11 -6,19 -15,19 -8,0 -14,-8 -14,-19 0,-10 6,-18 14,-18zm68 1c8,0 15,8 15,18 0,11 -7,19 -15,19 -8,0 -15,-8 -15,-19 0,-10 7,-18 15,-18zm-381 -58c6,0 10,9 10,19 0,11 -4,19 -10,19 -5,0 -9,-8 -9,-19 0,-10 4,-19 9,-19zm-36 -19c5,0 9,8 9,19 0,10 -4,19 -9,19 -6,0 -10,-9 -10,-19 0,-11 4,-19 10,-19zm239 66c7,0 13,9 13,19 0,11 -6,19 -13,19 -7,0 -13,-8 -13,-19 0,-10 6,-19 13,-19zm-65 -8c7,0 12,9 12,19 0,10 -5,19 -12,19 -6,0 -11,-9 -11,-19 0,-10 5,-19 11,-19zm-96 641c6,0 10,9 10,19 0,11 -4,19 -10,19 -5,0 -9,-8 -9,-19 0,-10 4,-19 9,-19zm215 36c7,0 13,9 13,19 0,10 -6,19 -13,19 -7,0 -13,-9 -13,-19 0,-10 6,-19 13,-19zm-170 -25c7,0 12,8 12,18 0,11 -5,19 -12,19 -6,0 -11,-8 -11,-19 0,-10 5,-18 11,-18zm226 29c9,0 15,9 15,19 0,11 -6,19 -15,19 -8,0 -14,-8 -14,-19 0,-10 6,-19 14,-19zm68 1c8,0 15,9 15,19 0,11 -7,19 -15,19 -8,0 -15,-8 -15,-19 0,-10 7,-19 15,-19zm-381 -57c6,0 10,8 10,19 0,10 -4,19 -10,19 -5,0 -9,-9 -9,-19 0,-11 4,-19 9,-19zm-36 -19c5,0 9,8 9,18 0,11 -4,19 -9,19 -6,0 -10,-8 -10,-19 0,-10 4,-18 10,-18zm239 66c7,0 13,8 13,19 0,10 -6,19 -13,19 -7,0 -13,-9 -13,-19 0,-11 6,-19 13,-19zm-65 -8c7,0 12,8 12,19 0,10 -5,19 -12,19 -6,0 -11,-9 -11,-19 0,-11 5,-19 11,-19zm-96 -747c6,0 10,9 10,19 0,11 -4,19 -10,19 -5,0 -9,-8 -9,-19 0,-10 4,-19 9,-19zm215 36c7,0 13,9 13,19 0,10 -6,19 -13,19 -7,0 -13,-9 -13,-19 0,-10 6,-19 13,-19zm-170 -25c7,0 12,8 12,18 0,11 -5,19 -12,19 -6,0 -11,-8 -11,-19 0,-10 5,-18 11,-18zm226 29c9,0 15,9 15,19 0,11 -6,19 -15,19 -8,0 -14,-8 -14,-19 0,-10 6,-19 14,-19zm68 1c8,0 15,9 15,19 0,11 -7,19 -15,19 -8,0 -15,-8 -15,-19 0,-10 7,-19 15,-19zm-381 -57c6,0 10,8 10,19 0,10 -4,19 -10,19 -5,0 -9,-9 -9,-19 0,-11 4,-19 9,-19zm-36 -20c5,0 9,9 9,19 0,11 -4,19 -9,19 -6,0 -10,-8 -10,-19 0,-10 4,-19 10,-19zm239 67c7,0 13,8 13,19 0,10 -6,19 -13,19 -7,0 -13,-9 -13,-19 0,-11 6,-19 13,-19zm-65 -8c7,0 12,8 12,19 0,10 -5,19 -12,19 -6,0 -11,-9 -11,-19 0,-11 5,-19 11,-19zm642 454c-6,0 -10,8 -10,19 0,10 4,19 10,19 5,0 9,-9 9,-19 0,-11 -4,-19 -9,-19zm-215 36c-7,0 -13,8 -13,19 0,10 6,18 13,18 7,0 13,-8 13,-18 0,-11 -6,-19 -13,-19zm170 -26c-7,0 -12,9 -12,19 0,10 5,19 12,19 6,0 11,-9 11,-19 0,-10 -5,-19 -11,-19zm-226 30c-9,0 -15,8 -15,19 0,10 6,19 15,19 8,0 15,-9 15,-19 0,-11 -7,-19 -15,-19zm-68 1c-8,0 -15,8 -15,19 0,10 7,19 15,19 8,0 15,-9 15,-19 0,-11 -7,-19 -15,-19zm381 -58c-6,0 -10,9 -10,19 0,11 4,19 10,19 5,0 9,-8 9,-19 0,-10 -4,-19 -9,-19zm36 -19c-5,0 -9,9 -9,19 0,10 4,19 9,19 6,0 10,-9 10,-19 0,-10 -4,-19 -10,-19zm-239 67c-7,0 -13,8 -13,18 0,11 6,19 13,19 7,0 13,-8 13,-19 0,-10 -6,-18 -13,-18zm65 -9c-7,0 -12,9 -12,19 0,11 5,19 12,19 6,0 11,-8 11,-19 0,-10 -5,-19 -11,-19zm96 -632c-6,0 -10,9 -10,19 0,11 4,19 10,19 5,0 9,-8 9,-19 0,-10 -4,-19 -9,-19zm-215 36c-7,0 -13,9 -13,19 0,11 6,19 13,19 7,0 13,-8 13,-19 0,-10 -6,-19 -13,-19zm170 -25c-7,0 -12,8 -12,19 0,10 5,18 12,18 6,0 11,-8 11,-18 0,-11 -5,-19 -11,-19zm-226 29c-9,0 -15,9 -15,19 0,11 6,19 15,19 8,0 15,-8 15,-19 0,-10 -7,-19 -15,-19zm-68 1c-8,0 -15,9 -15,19 0,11 7,19 15,19 8,0 15,-8 15,-19 0,-10 -7,-19 -15,-19zm381 -57c-6,0 -10,8 -10,19 0,10 4,19 10,19 5,0 9,-9 9,-19 0,-11 -4,-19 -9,-19zm36 -19c-5,0 -9,8 -9,18 0,11 4,19 9,19 6,0 10,-8 10,-19 0,-10 -4,-18 -10,-18zm-239 66c-7,0 -13,8 -13,19 0,10 6,19 13,19 7,0 13,-9 13,-19 0,-11 -6,-19 -13,-19zm65 -8c-7,0 -12,8 -12,19 0,10 5,19 12,19 6,0 11,-9 11,-19 0,-11 -5,-19 -11,-19zm-642 42c6,0 10,8 10,19 0,10 -4,19 -10,19 -5,0 -9,-9 -9,-19 0,-11 4,-19 9,-19zm215 36c7,0 13,8 13,18 0,11 -6,19 -13,19 -7,0 -13,-8 -13,-19 0,-10 6,-18 13,-18zm-170 -26c7,0 12,8 12,19 0,10 -5,19 -12,19 -6,0 -11,-9 -11,-19 0,-11 5,-19 11,-19zm226 30c9,0 15,8 15,19 0,10 -6,19 -15,19 -8,0 -14,-9 -14,-19 0,-11 6,-19 14,-19zm68 1c8,0 15,8 15,19 0,10 -7,19 -15,19 -8,0 -15,-9 -15,-19 0,-11 7,-19 15,-19zm-381 -58c6,0 10,9 10,19 0,11 -4,19 -10,19 -5,0 -9,-8 -9,-19 0,-10 4,-19 9,-19zm-36 -19c5,0 9,8 9,19 0,10 -4,19 -9,19 -6,0 -10,-9 -10,-19 0,-11 4,-19 10,-19zm239 66c7,0 13,9 13,19 0,11 -6,19 -13,19 -7,0 -13,-8 -13,-19 0,-10 6,-19 13,-19zm-65 -8c7,0 12,9 12,19 0,11 -5,19 -12,19 -6,0 -11,-8 -11,-19 0,-10 5,-19 11,-19zm642 107c-6,0 -10,8 -10,19 0,10 4,18 10,18 5,0 9,-8 9,-18 0,-11 -4,-19 -9,-19zm-215 35c-7,0 -13,9 -13,19 0,11 6,19 13,19 7,0 13,-8 13,-19 0,-10 -6,-19 -13,-19zm170 -25c-7,0 -12,8 -12,19 0,10 5,19 12,19 6,0 11,-9 11,-19 0,-11 -5,-19 -11,-19zm-226 30c-9,0 -15,8 -15,18 0,11 6,19 15,19 8,0 15,-8 15,-19 0,-10 -7,-18 -15,-18zm-68 1c-8,0 -15,8 -15,18 0,11 7,19 15,19 8,0 15,-8 15,-19 0,-10 -7,-18 -15,-18zm381 -58c-6,0 -10,9 -10,19 0,11 4,19 10,19 5,0 9,-8 9,-19 0,-10 -4,-19 -9,-19zm36 -19c-5,0 -9,8 -9,19 0,10 4,19 9,19 6,0 10,-9 10,-19 0,-11 -4,-19 -10,-19zm-239 66c-7,0 -13,9 -13,19 0,11 6,19 13,19 7,0 13,-8 13,-19 0,-10 -6,-19 -13,-19zm65 -8c-7,0 -12,9 -12,19 0,10 5,19 12,19 6,0 11,-9 11,-19 0,-10 -5,-19 -11,-19zm-642 34c6,0 10,8 10,19 0,10 -4,19 -10,19 -5,0 -9,-9 -9,-19 0,-11 4,-19 9,-19zm215 36c7,0 13,8 13,19 0,10 -6,18 -13,18 -7,0 -13,-8 -13,-18 0,-11 6,-19 13,-19zm-170 -26c7,0 12,9 12,19 0,10 -5,19 -12,19 -6,0 -11,-9 -11,-19 0,-10 5,-19 11,-19zm226 30c9,0 15,8 15,19 0,10 -6,19 -15,19 -8,0 -14,-9 -14,-19 0,-11 6,-19 14,-19zm68 1c8,0 15,8 15,19 0,10 -7,19 -15,19 -8,0 -15,-9 -15,-19 0,-11 7,-19 15,-19zm-381 -57c6,0 10,8 10,18 0,11 -4,19 -10,19 -5,0 -9,-8 -9,-19 0,-10 4,-18 9,-18zm-36 -20c5,0 9,9 9,19 0,10 -4,19 -9,19 -6,0 -10,-9 -10,-19 0,-10 4,-19 10,-19zm239 67c7,0 13,8 13,18 0,11 -6,19 -13,19 -7,0 -13,-8 -13,-19 0,-10 6,-18 13,-18zm362 308c-7,0 -13,9 -13,19 0,11 6,19 13,19 7,0 13,-8 13,-19 0,-10 -6,-19 -13,-19zm170 -25c-7,0 -12,8 -12,19 0,10 5,19 12,19 6,0 11,-9 11,-19 0,-11 -5,-19 -11,-19zm-226 29c-9,0 -15,9 -15,19 0,11 6,19 15,19 8,0 15,-8 15,-19 0,-10 -7,-19 -15,-19zm-68 1c-8,0 -15,9 -15,19 0,11 7,19 15,19 8,0 15,-8 15,-19 0,-10 -7,-19 -15,-19zm381 -57c-6,0 -10,9 -10,19 0,11 4,19 10,19 5,0 9,-8 9,-19 0,-10 -4,-19 -9,-19zm36 -19c-5,0 -9,8 -9,19 0,10 4,19 9,19 6,0 10,-9 10,-19 0,-11 -4,-19 -10,-19zm-239 66c-7,0 -13,9 -13,19 0,11 6,19 13,19 7,0 13,-8 13,-19 0,-10 -6,-19 -13,-19zm65 -8c-7,0 -12,9 -12,19 0,10 5,19 12,19 6,0 11,-9 11,-19 0,-10 -5,-19 -11,-19zm-546 -304c7,0 12,9 12,19 0,11 -5,19 -12,19 -6,0 -11,-8 -11,-19 0,-10 5,-19 11,-19z"/>
  <path fill="none" stroke="#333333" stroke-width="19.9975" d="M1299 2836c1,3 2,7 2,11 0,65 -221,118 -493,118 -272,0 -493,-53 -493,-118 0,0 0,-1 0,-1l-1 0 0 -2720 985 0 0 2710z"/>
  <ellipse fill="white" stroke="#324045" stroke-width="19.9975" cx="808" cy="119" rx="493" ry="118"/>
  <ellipse fill="#00A0DF" cx="583" cy="119" rx="61" ry="14"/>
  <ellipse fill="#00A0DF" cx="1049" cy="119" rx="61" ry="14"/>
  <ellipse fill="none" stroke="#2DB3E2" stroke-width="19.9975" cx="809" cy="119" rx="474" ry="94"/>
  <polygon fill="none" stroke="#2B2A29" stroke-width="19.9975" points="4601,43 5385,65 5385,2900 4601,2949 "/>
  <polygon fill="none" stroke="#2B2A29" stroke-width="19.9975" points="4601,43 4048,231 4065,2618 4601,2949 "/>
  <polygon fill="#CCCCCC" stroke="#2B2A29" stroke-width="19.9975" points="4601,1518 4061,1443 4065,2617 4601,2949 "/>
  <polygon fill="#CCCCCC" stroke="#2B2A29" stroke-width="19.9975" points="4601,1523 5389,1498 5385,2902 4601,2949 "/>
  <path fill="#2B2A29" d="M4955 752l17 0 -9 33 24 -33 17 0 -6 33 21 -33 17 0 -39 60 -17 0 6 -38 -27 38 -17 0 13 -60zm87 0l26 0c6,0 9,0 12,2 3,1 4,3 5,6 1,3 1,6 1,10 -1,3 -2,7 -4,11 -3,7 -5,12 -8,16 -3,3 -6,6 -10,8 -4,3 -7,4 -10,5 -5,1 -8,2 -11,2l-27 0 26 -60zm12 13l-14 33 4 0c4,0 7,0 9,-1 2,-1 3,-3 5,-5 2,-2 4,-5 6,-10 3,-7 4,-11 3,-13 -1,-3 -4,-4 -9,-4l-4 0z"/>
  <rect fill="none" stroke="#2B2A29" stroke-width="13.3304" x="4881" y="701" width="255" height="157" rx="12" ry="13"/>
  <line fill="none" stroke="#00CAFF" stroke-width="19.9975" x1="4673" y1="1431" x2="5345" y2= "1409" />
  <path fill="#222222" d="M3841 912l340 0 149 150 0 527c0,27 -22,50 -49,50l-440 0c-28,0 -50,-22 -50,-50l0 -627c0,-27 22,-50 50,-50z"/>
  <path fill="white" d="M3849 930l337 0 129 130 0 518c0,24 -19,43 -43,43l-423 0c-24,0 -43,-19 -43,-43l0 -605c0,-23 19,-43 43,-43z"/>
  <path fill="#222222" d="M4330 1066l-102 0c-27,0 -50,-23 -50,-50l0 -102 152 152z"/>
  <path fill="#F1F1F1" d="M4307 1055l-75 0c-23,0 -43,-20 -43,-43l0 -75 118 118z"/>
  <path id="Shape" fill="#FF245C" d="M3970 1171l0 209c-11,-5 -25,-7 -39,-4 -29,7 -50,31 -45,55 4,19 23,32 48,32 5,0 10,-1 14,-2 26,-5 46,-25 46,-46l1 -182 163 -29 0 143c-11,-5 -25,-6 -38,-4 -30,7 -50,31 -46,55 4,19 24,32 48,32 5,0 10,-1 15,-2 26,-5 45,-25 46,-46l0 -245 -213 34z"/>
  <path fill="#2B2A29" d="M3918 3217l0 161 -33 0 0 -84 -40 50 -10 0 -40 -50 0 84 -32 0 0 -161 10 0 67 85 67 -85 11 0zm109 99l0 62 -32 0 0 -62 -55 -96 36 0 35 63 35 -63 35 0 -54 96zm210 -99c15,0 28,3 41,10 12,7 22,17 29,29l-25 17c-11,-17 -26,-26 -45,-26 -10,0 -19,2 -27,7 -7,4 -13,10 -18,18 -4,8 -6,17 -6,27 0,10 2,19 6,27 5,8 11,14 18,18 8,5 17,7 27,7 19,0 34,-9 45,-27l25 18c-7,12 -17,22 -29,29 -13,6 -26,10 -41,10 -16,0 -30,-4 -43,-11 -13,-7 -23,-17 -31,-29 -7,-13 -11,-27 -11,-42 0,-15 4,-29 12,-42 7,-12 17,-22 30,-29 13,-8 27,-11 43,-11zm130 132l69 0 0 29 -102 0 0 -158 33 0 0 129zm164 -132c16,0 30,3 43,11 12,7 23,17 30,29 8,13 12,27 12,42 0,15 -4,29 -12,42 -7,12 -18,22 -30,29 -13,7 -27,11 -43,11 -15,0 -29,-4 -42,-11 -13,-7 -23,-17 -30,-29 -8,-13 -12,-27 -12,-42 0,-15 4,-29 12,-42 7,-12 17,-22 30,-29 13,-8 27,-11 42,-11zm0 30c-9,0 -18,2 -26,6 -7,5 -13,11 -18,19 -4,8 -6,17 -6,27 0,10 2,19 6,27 5,8 11,14 18,18 8,5 17,7 26,7 10,0 19,-2 27,-7 7,-4 13,-10 18,-18 4,-8 6,-17 6,-27 0,-10 -2,-19 -6,-27 -5,-8 -11,-14 -18,-18 -8,-5 -17,-7 -27,-7zm245 66c0,13 -3,26 -9,36 -6,10 -14,18 -24,24 -10,5 -21,8 -34,8 -13,0 -25,-3 -35,-8 -10,-6 -18,-14 -24,-24 -5,-10 -8,-23 -8,-36l0 -93 32 0 0 95c0,11 3,20 10,27 6,6 15,9 25,9 10,0 19,-3 25,-9 6,-7 10,-16 10,-27l0 -95 32 0 0 93zm87 -93c17,0 32,3 45,10 13,6 23,15 30,27 8,12 11,26 11,41 0,16 -3,29 -11,42 -7,12 -17,21 -30,28 -13,7 -28,10 -45,10l-52 0 0 -158 52 0zm-20 29l0 100 20 0c10,0 20,-2 28,-6 8,-5 14,-10 18,-18 5,-8 7,-17 7,-27 0,-15 -5,-27 -15,-36 -9,-9 -22,-13 -38,-13l-20 0zm336 129l-33 0 0 -68 -70 0 0 68 -32 0 0 -158 32 0 0 60 70 0 0 -60 33 0 0 158zm111 -161c15,0 29,3 42,11 13,7 23,17 31,29 8,13 11,27 11,42 0,15 -3,29 -11,42 -8,12 -18,22 -31,29 -13,7 -27,11 -42,11 -15,0 -30,-4 -42,-11 -13,-7 -23,-17 -31,-29 -7,-13 -11,-27 -11,-42 0,-15 4,-29 11,-42 8,-12 18,-22 31,-29 12,-8 27,-11 42,-11zm0 30c-10,0 -18,2 -26,6 -8,5 -14,11 -18,19 -5,8 -7,17 -7,27 0,10 2,19 7,27 4,8 10,14 18,18 8,5 16,7 26,7 10,0 18,-2 26,-7 8,-4 14,-10 18,-18 5,-8 7,-17 7,-27 0,-10 -2,-19 -7,-27 -4,-8 -10,-14 -18,-18 -8,-5 -16,-7 -26,-7zm267 -30l0 161 -33 0 0 -84 -39 50 -11 0 -40 -50 0 84 -32 0 0 -161 10 0 67 85 67 -85 11 0zm143 32l-74 0 0 32 54 0 0 28 -54 0 0 40 77 0 0 29 -110 0 0 -158 107 0 0 29z"/>
  <path fill="black" d="M602 3435c-56,41 -137,63 -207,63 -98,0 -187,-36 -253,-96 -6,-5 -1,-11 5,-8 72,42 162,67 254,67 62,0 130,-12 193,-39 10,-4 17,6 8,13z"/>
  <g>
   <path fill="black" d="M626 3408c-8,-9 -48,-4 -66,-2 -5,1 -6,-4 -1,-7 32,-23 84,-16 90,-9 7,8 -1,60 -31,86 -5,3 -9,1 -7,-4 7,-17 22,-54 15,-64l0 0zm-65 -169l0 -22c0,-3 3,-5 6,-5l98 0c3,0 6,2 6,5l0 19c0,3 -3,7 -8,14l-51 73c19,-1 39,2 56,12 4,2 5,5 6,8l0 24c0,3 -4,6 -8,5 -30,-16 -70,-18 -103,0 -4,2 -7,-2 -7,-5l0 -23c0,-3 0,-9 3,-15l59 -84 -51 0c-3,0 -6,-2 -6,-6l0 0zm-358 137l-30 0c-2,0 -5,-2 -5,-5l0 -153c0,-3 3,-6 6,-6l28 0c3,0 5,3 5,5l0 20 1 0c7,-19 21,-28 39,-28 19,0 30,9 39,28 7,-19 23,-28 41,-28 13,0 26,5 35,17 9,13 7,31 7,48l0 97c0,3 -2,5 -6,5l-30 0c-2,0 -5,-2 -5,-5l0 -82c0,-6 1,-22 -1,-28 -2,-11 -9,-14 -17,-14 -7,0 -15,5 -18,13 -3,8 -3,21 -3,29l0 82c0,3 -2,5 -6,5l-29 0c-3,0 -6,-2 -6,-5l0 -82c0,-17 3,-42 -18,-42 -22,0 -21,25 -21,42l0 82c0,3 -3,5 -6,5l0 0zm552 -136c-22,0 -23,30 -23,49 0,19 0,59 23,59 23,0 24,-33 24,-52 0,-13 0,-29 -4,-41 -3,-10 -10,-15 -20,-15l0 0zm0 -31c45,0 68,38 68,87 0,46 -26,83 -68,83 -43,0 -67,-38 -67,-85 0,-48 24,-85 67,-85l0 0zm126 167l-30 0c-3,0 -5,-2 -5,-5l0 -154c0,-2 3,-5 6,-5l27 0c3,0 5,2 6,5l0 23 0 0c8,-21 20,-31 41,-31 13,0 26,5 35,18 7,12 7,33 7,48l0 96c0,3 -2,5 -5,5l-30 0c-3,0 -5,-2 -6,-5l0 -83c0,-17 2,-41 -18,-41 -7,0 -14,5 -17,12 -5,9 -5,19 -5,29l0 83c0,3 -3,5 -6,5l0 0zm-368 0c-2,2 -5,2 -7,0 -10,-8 -12,-12 -17,-19 -16,16 -28,21 -49,21 -25,0 -45,-15 -45,-46 0,-25 13,-41 32,-49 16,-7 39,-8 56,-10l0 -4c0,-7 1,-16 -4,-22 -3,-5 -10,-8 -16,-8 -12,0 -22,6 -24,18 -1,3 -3,6 -5,6l-29 -3c-3,-1 -6,-3 -5,-7 7,-35 38,-45 67,-45 14,0 33,3 45,14 14,14 13,32 13,52l0 46c0,14 6,21 11,28 2,3 3,6 0,8 -6,5 -17,14 -23,20l0 0 0 0zm-30 -73c0,12 0,21 -5,32 -5,8 -13,13 -21,13 -12,0 -18,-9 -18,-21 0,-26 23,-31 44,-31l0 7 0 0zm-361 73c-2,2 -5,2 -7,0 -10,-8 -12,-12 -17,-19 -17,16 -28,21 -50,21 -25,0 -44,-15 -44,-46 0,-25 13,-41 32,-49 16,-7 38,-8 56,-10l0 -4c0,-7 0,-16 -4,-22 -4,-5 -11,-8 -17,-8 -11,0 -21,6 -24,18 0,3 -2,6 -5,6l-29 -3c-2,-1 -5,-3 -4,-7 6,-35 38,-45 66,-45 15,0 34,3 45,14 15,14 14,32 14,52l0 46c0,14 5,21 11,28 2,3 2,6 0,8 -6,5 -17,15 -23,20l0 0 0 0zm-30 -73c0,12 0,21 -6,32 -5,8 -12,13 -21,13 -11,0 -18,-9 -18,-21 0,-26 23,-31 45,-31l0 7 0 0z"/>
  </g>
  <path fill="url(#id0)" d="M1172 3293c0,-52 -25,-85 -68,-85 -42,0 -69,35 -69,85 0,46 25,86 79,86 19,0 39,-5 54,-15l-10 -21c-11,6 -25,11 -40,11 -33,0 -51,-23 -52,-53l106 0 0 -8 0 0zm-106 -15c1,-25 15,-45 38,-45 25,0 36,22 36,45l-74 0z"/>
  <path fill="url(#id1)" d="M1184 3296c0,-49 33,-88 83,-88 18,0 32,5 42,11l0 26c-11,-7 -24,-11 -40,-11 -33,0 -53,25 -53,60 0,38 20,60 51,60 17,0 29,-6 39,-12l9 22c-12,8 -31,15 -51,15 -52,0 -80,-37 -80,-83m0 0l0 0 0 0z"/>
  <path fill="url(#id2)" d="M1335 3132l31 0 0 100c16,-14 34,-24 55,-24 26,0 50,16 50,58l0 110 -31 0 0 -100c0,-23 -5,-41 -28,-41 -16,0 -32,10 -46,22l0 119 -31 0 0 -244 0 0z"/>
  <path fill="url(#id3)" d="M1569 3208c-47,0 -78,38 -78,86 0,48 31,85 77,85 47,0 78,-37 78,-85 0,-48 -31,-86 -77,-86zm-1 146c-28,0 -46,-25 -46,-60 0,-35 18,-60 47,-60 28,0 45,25 45,60 0,35 -17,60 -46,60z"/>
  <path fill="white" stroke="#464646" stroke-width="19.9975" d="M1718 921l-881 0c-56,0 -102,46 -102,102l0 504c0,55 46,101 102,101l257 0c6,0 18,10 18,17 1,33 -1,59 1,92 1,15 13,22 30,12 60,-38 165,-120 180,-121l395 0c56,0 102,-46 102,-101l0 -504c0,-56 -46,-102 -102,-102z"/>
  <ellipse fill="none" stroke="#2DB3E2" stroke-width="13.3304" stroke-linecap="round" stroke-linejoin="round" transform="matrix(0.820861 -0.188973 0.188973 0.820861 1426.75 1401.16)" rx="50" ry="33"/>
  <ellipse fill="none" stroke="#2DB3E2" stroke-width="13.3304" stroke-linecap="round" stroke-linejoin="round" transform="matrix(0.831608 -0.191447 0.191447 0.831608 1594.3 1348.02)" rx="50" ry="33"/>
  <polyline fill="none" stroke="#2DB3E2" stroke-width="13.3304" stroke-linecap="round" stroke-linejoin="round" points="1468,1392 1468,1204 1635,1139 1635,1336 "/>
  <line fill="none" stroke="#2DB3E2" stroke-width="13.3304" stroke-linecap="round" stroke-linejoin="round" x1="1468" y1="1260" x2="1636" y2= "1192" />
  <ellipse fill="none" stroke="#2DB3E2" stroke-width="13.3304" stroke-linecap="round" stroke-linejoin="round" transform="matrix(0.820861 -0.188973 0.188973 0.820861 1124.1 1358.72)" rx="50" ry="33"/>
  <ellipse fill="none" stroke="#2DB3E2" stroke-width="13.3304" stroke-linecap="round" stroke-linejoin="round" transform="matrix(0.831608 -0.191447 0.191447 0.831608 1291.65 1305.58)" rx="50" ry="33"/>
  <polyline fill="none" stroke="#2DB3E2" stroke-width="13.3304" stroke-linecap="round" stroke-linejoin="round" points="1165,1349 1165,1161 1332,1096 1332,1294 "/>
  <ellipse fill="none" stroke="#2DB3E2" stroke-width="13.3304" stroke-linecap="round" stroke-linejoin="round" transform="matrix(0.820861 -0.188973 0.188973 0.820861 934.015 1408.55)" rx="50" ry="33"/>
  <path fill="none" stroke="#2DB3E2" stroke-width="13.3304" stroke-linecap="round" stroke-linejoin="round" d="M975 1399l0 -188c72,15 15,78 58,102"/>
  <line fill="none" stroke="#2DB3E2" stroke-width="13.3304" stroke-linecap="round" stroke-linejoin="round" x1="1165" y1="1217" x2="1333" y2= "1150" />
 </g>
</svg>
