<?xml version="1.0" encoding="UTF-8"?>
<!DOCTYPE svg PUBLIC "-//W3C//DTD SVG 1.1//EN" "http://www.w3.org/Graphics/SVG/1.1/DTD/svg11.dtd">
<svg xmlns="http://www.w3.org/2000/svg" xml:space="preserve" width="60px" height="60px" version="1.1" shape-rendering="geometricPrecision" text-rendering="geometricPrecision" image-rendering="optimizeQuality" fill-rule="evenodd" clip-rule="evenodd"
viewBox="0 0 600 600"
 xmlns:xlink="http://www.w3.org/1999/xlink">
 <g id="Layer_x0020_1">
  <metadata id="s"/>
  <g id="_300482152">
   <path fill="#0081C6" d="M309 194c62,0 112,50 112,112 0,63 -50,113 -112,113 -63,0 -113,-50 -113,-113 0,-62 50,-112 113,-112zm0 43c38,0 69,31 69,69 0,39 -31,70 -69,70 -39,0 -70,-31 -70,-70 0,-38 31,-69 70,-69z"/>
   <path fill="#0081C6" d="M113 194c62,0 112,50 112,112 0,63 -50,113 -112,113 -63,0 -113,-50 -113,-113 0,-3 0,-6 0,-8l0 -179c0,-11 10,-21 22,-21l0 0c11,0 21,9 21,21l0 99c19,-15 43,-24 70,-24zm0 43c38,0 69,31 69,69 0,39 -31,70 -69,70 -39,0 -69,-31 -69,-70 0,-38 30,-69 69,-69z"/>
   <path fill="#0081C6" d="M592 199l0 0c9,7 11,20 4,29l-59 79 59 80c7,9 5,22 -4,29l0 0c-9,6 -22,5 -28,-4l-53 -71 -52 71c-6,9 -19,10 -28,4l0 0c-9,-7 -11,-20 -4,-29l59 -80 -59 -79c-7,-9 -5,-22 4,-29l0 0c9,-7 22,-5 28,4l52 70 53 -70c6,-9 19,-11 28,-4z"/>
  </g>
 </g>
</svg>
