<?xml version="1.0" encoding="UTF-8"?>
<!DOCTYPE svg PUBLIC "-//W3C//DTD SVG 1.1//EN" "http://www.w3.org/Graphics/SVG/1.1/DTD/svg11.dtd">
<svg xmlns="http://www.w3.org/2000/svg" xml:space="preserve" width="70px" height="54px" version="1.1" shape-rendering="geometricPrecision" text-rendering="geometricPrecision" image-rendering="optimizeQuality" fill-rule="evenodd" clip-rule="evenodd"
viewBox="0 0 700 540"
 xmlns:xlink="http://www.w3.org/1999/xlink">
 <g id="Layer_x0020_1">
  <metadata id="s"/>
  <path fill="#72C58B" d="M0 105l700 0 0 -5c0,-23 -19,-41 -41,-41l-334 0 -64 -59 -220 0c-23,0 -41,19 -41,41l0 64z"/>
  <path fill="#BAE5A6" d="M0 93l700 0 0 392c0,23 -19,42 -41,42l-618 0c-23,0 -41,-19 -41,-42l0 -392z"/>
  <g id="_291766368">
   <path fill="#0081C6" d="M264 256c31,0 57,25 57,56 0,31 -26,57 -57,57 -31,0 -56,-26 -56,-57 0,-31 25,-56 56,-56zm0 22c19,0 35,15 35,34 0,19 -16,35 -35,35 -19,0 -34,-16 -34,-35 0,-19 15,-34 34,-34z"/>
   <path fill="#0081C6" d="M166 256c31,0 57,25 57,56 0,31 -26,57 -57,57 -31,0 -56,-26 -56,-57 0,-1 0,-3 0,-4l0 -89c0,-6 5,-11 11,-11l0 0c6,0 10,5 10,10l0 50c10,-7 22,-12 35,-12zm0 22c19,0 35,15 35,34 0,19 -16,35 -35,35 -19,0 -34,-16 -34,-35 0,-19 15,-34 34,-34z"/>
   <path fill="#0081C6" d="M406 259l0 0c4,3 5,10 2,14l-30 40 30 39c3,5 2,11 -2,15l0 0c-4,3 -11,2 -14,-2l-26 -35 -26 35c-4,4 -10,5 -15,2l0 0c-4,-4 -5,-10 -1,-15l29 -39 -29 -40c-4,-4 -3,-11 1,-14l0 0c5,-4 11,-3 15,2l26 35 26 -35c3,-5 10,-6 14,-2z"/>
  </g>
 </g>
</svg>
