<?xml version="1.0" encoding="UTF-8"?>
<!DOCTYPE svg PUBLIC "-//W3C//DTD SVG 1.1//EN" "http://www.w3.org/Graphics/SVG/1.1/DTD/svg11.dtd">
<svg xmlns="http://www.w3.org/2000/svg" xml:space="preserve" width="70px" height="54px" version="1.1" shape-rendering="geometricPrecision" text-rendering="geometricPrecision" image-rendering="optimizeQuality" fill-rule="evenodd" clip-rule="evenodd"
viewBox="0 0 700 540"
 xmlns:xlink="http://www.w3.org/1999/xlink">
 <g id="Layer_x0020_1">
  <metadata id="s"/>
  <path fill="#72C58B" d="M0 105l700 0 0 -5c0,-23 -19,-41 -41,-41l-334 0 -64 -59 -220 0c-23,0 -41,19 -41,41l0 64z"/>
  <path fill="#BAE5A6" d="M0 93l700 0 0 392c0,23 -19,42 -41,42l-618 0c-23,0 -41,-19 -41,-42l0 -392z"/>
  <polygon fill="white" points="207,387 120,328 173,285 121,243 208,186 261,230 314,186 400,243 348,285 400,328 315,388 "/>
  <path fill="#007EE5" d="M132 327l76 50 53 -44 53 44 76 -50 -53 -42 53 -42 -76 -49 -53 44 -53 -44 -76 49 52 42 -52 42zm129 15l-53 44 -23 -14 0 16 76 46 76 -46 0 -16 -23 14 -53 -44zm0 -9l-77 -48 77 -47 76 47 -76 48z"/>
 </g>
</svg>
