<?xml version="1.0" encoding="UTF-8"?>
<!DOCTYPE svg PUBLIC "-//W3C//DTD SVG 1.1//EN" "http://www.w3.org/Graphics/SVG/1.1/DTD/svg11.dtd">
<svg xmlns="http://www.w3.org/2000/svg" xml:space="preserve" width="60px" height="60px" version="1.1" shape-rendering="geometricPrecision" text-rendering="geometricPrecision" image-rendering="optimizeQuality" fill-rule="evenodd" clip-rule="evenodd"
viewBox="0 0 600 600"
 xmlns:xlink="http://www.w3.org/1999/xlink">
 <g id="Layer_x0020_1">
  <metadata id="s"/>
  <polygon fill="white" points="194,456 18,338 125,251 21,166 195,50 302,140 409,51 582,165 477,251 581,336 411,458 "/>
  <path fill="#007EE5" d="M42 336l153 100 107 -90 107 90 153 -100 -106 -85 106 -85 -153 -99 -107 89 -107 -89 -153 99 106 85 -106 85zm260 29l-107 89 -46 -30 0 34 153 92 153 -92 0 -34 -46 30 -107 -89zm0 -19l-154 -95 154 -95 154 95 -154 95z"/>
 </g>
</svg>
