<?xml version="1.0" encoding="UTF-8"?>
<!DOCTYPE svg PUBLIC "-//W3C//DTD SVG 1.1//EN" "http://www.w3.org/Graphics/SVG/1.1/DTD/svg11.dtd">
<svg xmlns="http://www.w3.org/2000/svg" xml:space="preserve" width="60px" height="60px" version="1.1" shape-rendering="geometricPrecision" text-rendering="geometricPrecision" image-rendering="optimizeQuality" fill-rule="evenodd" clip-rule="evenodd"
viewBox="0 0 600 600"
 xmlns:xlink="http://www.w3.org/1999/xlink">
 <g id="Layer_x0020_1">
  <metadata id="s"/>
  <rect fill="white" x="189" y="101" width="333" height="449"/>
  <path id="shape" fill="#4460A0" d="M317 550l-239 0c-16,0 -28,-12 -28,-28l0 -444c0,-16 12,-28 28,-28l444 0c16,0 28,12 28,28l0 444c0,16 -12,28 -28,28l-127 0 0 -194 65 0 10 -75 -75 0 0 -48c0,-22 6,-37 37,-37l40 0 0 -68c-7,0 -30,-2 -58,-2 -57,0 -97,35 -97,99l0 56 -65 0 0 75 65 0 0 194z"/>
 </g>
</svg>
