<?xml version="1.0" encoding="UTF-8"?>
<!DOCTYPE svg PUBLIC "-//W3C//DTD SVG 1.1//EN" "http://www.w3.org/Graphics/SVG/1.1/DTD/svg11.dtd">
<svg xmlns="http://www.w3.org/2000/svg" xml:space="preserve" width="70px" height="54px" version="1.1" shape-rendering="geometricPrecision" text-rendering="geometricPrecision" image-rendering="optimizeQuality" fill-rule="evenodd" clip-rule="evenodd"
viewBox="0 0 700 540"
 xmlns:xlink="http://www.w3.org/1999/xlink">
 <g id="Layer_x0020_1">
  <metadata id="s"/>
  <path fill="#72C58B" d="M0 105l700 0 0 -5c0,-23 -19,-41 -41,-41l-334 0 -64 -59 -220 0c-23,0 -41,19 -41,41l0 64z"/>
  <path fill="#BAE5A6" d="M0 93l700 0 0 392c0,23 -19,42 -41,42l-618 0c-23,0 -41,-19 -41,-42l0 -392z"/>
  <rect fill="white" x="196" y="214" width="160" height="216"/>
  <path id="shape" fill="#4460A0" d="M268 430l-115 0c-7,0 -13,-6 -13,-13l0 -214c0,-7 6,-13 13,-13l214 0c7,0 13,6 13,13l0 214c0,7 -6,13 -13,13l-61 0 0 -93 31 0 4 -36 -35 0 0 -23c0,-11 3,-18 18,-18l19 0 0 -32c-4,-1 -15,-2 -28,-2 -28,0 -47,17 -47,48l0 27 -31 0 0 36 31 0 0 93z"/>
 </g>
</svg>
