<?xml version="1.0" encoding="UTF-8"?>
<!DOCTYPE svg PUBLIC "-//W3C//DTD SVG 1.1//EN" "http://www.w3.org/Graphics/SVG/1.1/DTD/svg11.dtd">
<svg xmlns="http://www.w3.org/2000/svg" xml:space="preserve" width="60px" height="60px" version="1.1" shape-rendering="geometricPrecision" text-rendering="geometricPrecision" image-rendering="optimizeQuality" fill-rule="evenodd" clip-rule="evenodd"
viewBox="0 0 600 600"
 xmlns:xlink="http://www.w3.org/1999/xlink">
 <g id="Layer_x0020_1">
  <metadata id="s"/>
  <g id="_428735608">
   <path fill="#E04D3B" d="M425 165l-108 116c-10,-10 -15,-24 -17,-43l0 -208 125 135z"/>
   <path fill="#B21D5C" d="M317 281l108 -116 0 135 -63 0c-18,0 -33,-8 -45,-19z"/>
   <path fill="#4083F7" d="M435 425l-116 -108c10,-10 24,-15 43,-17l208 0 -135 125z"/>
   <path fill="#3467DB" d="M319 317l116 108 -135 0 0 -63c0,-18 8,-33 19,-45z"/>
   <path fill="#8DC745" d="M175 435l108 -116c10,10 15,24 17,43l0 208 -125 -135z"/>
   <path fill="#1FA561" d="M283 319l-108 116 0 -135 63 0c18,0 33,8 45,19z"/>
   <path fill="#FFC300" d="M165 175l116 108c-10,10 -24,15 -43,17l-208 0 135 -125z"/>
   <path fill="#FFA000" d="M281 283l-116 -108 135 0 0 63c0,18 -8,33 -19,45z"/>
  </g>
 </g>
</svg>
