<?xml version="1.0" encoding="UTF-8"?>
<!DOCTYPE svg PUBLIC "-//W3C//DTD SVG 1.1//EN" "http://www.w3.org/Graphics/SVG/1.1/DTD/svg11.dtd">
<svg xmlns="http://www.w3.org/2000/svg" xml:space="preserve" width="60px" height="60px" version="1.1" shape-rendering="geometricPrecision" text-rendering="geometricPrecision" image-rendering="optimizeQuality" fill-rule="evenodd" clip-rule="evenodd"
viewBox="0 0 600 600"
 xmlns:xlink="http://www.w3.org/1999/xlink">
 <g id="Layer_x0020_1">
  <metadata id="s"/>
  <path fill="#999999" d="M550 442c0,64 -51,115 -114,115l-272 0c-63,0 -114,-51 -114,-115l0 -271c0,-63 51,-114 114,-114l270 0c64,0 116,51 116,116l0 269z"/>
  <path fill="#FFD87A" d="M550 436c0,63 -51,114 -114,114l-272 0c-63,0 -114,-51 -114,-114l0 -272c0,-63 51,-114 114,-114l270 0c64,0 116,52 116,116l0 270z"/>
  <path fill="#F2A96D" d="M550 436c0,63 -51,114 -114,114l-164 0c-47,-93 -126,-167 -222,-207l0 -179c0,-63 51,-114 114,-114l270 0c64,0 116,52 116,116l0 270z"/>
  <path fill="#E7745E" d="M550 436c0,63 -51,114 -114,114l-45 0c-45,-158 -177,-279 -341,-309l0 -77c0,-63 51,-114 114,-114l270 0c64,0 116,52 116,116l0 270z"/>
  <path fill="#D6477B" d="M550 436c0,49 -31,91 -75,107 -24,-215 -204,-382 -425,-385 4,-60 53,-108 114,-108l270 0c64,0 116,52 116,116l0 270z"/>
  <path fill="#AC469D" d="M550 436c0,17 -4,33 -10,48 -14,-227 -203,-407 -433,-407 -6,0 -11,0 -17,0 20,-17 46,-27 74,-27l270 0c64,0 116,52 116,116l0 270z"/>
  <path fill="#9054A5" d="M304 50l130 0c64,0 116,52 116,116l0 92c-52,-98 -140,-173 -246,-208z"/>
  <path fill="white" d="M370 119l-140 0c-61,0 -111,50 -111,112l0 139c0,61 50,111 111,111l139 0c62,0 112,-50 112,-111l0 -139c0,-62 -50,-112 -111,-112zm76 237c0,50 -40,90 -90,90l-112 0c-50,0 -90,-40 -90,-90l0 -112c0,-50 40,-90 90,-90l112 0c50,0 90,40 90,90l0 112z"/>
  <path fill="white" d="M305 205c-53,0 -96,43 -96,96 0,52 43,95 96,95 53,0 95,-43 95,-95 0,-53 -42,-96 -95,-96zm0 153c-32,0 -58,-26 -58,-57 0,-32 26,-58 58,-58 32,0 57,26 57,58 0,31 -25,57 -57,57z"/>
  <path fill="white" d="M418 204c0,13 -11,24 -24,24 -14,0 -25,-11 -25,-24 0,-14 11,-25 25,-25 13,0 24,11 24,25z"/>
 </g>
</svg>
