<?xml version="1.0" encoding="UTF-8"?>
<!DOCTYPE svg PUBLIC "-//W3C//DTD SVG 1.1//EN" "http://www.w3.org/Graphics/SVG/1.1/DTD/svg11.dtd">
<svg xmlns="http://www.w3.org/2000/svg" xml:space="preserve" width="246px" height="40px" version="1.1" shape-rendering="geometricPrecision" text-rendering="geometricPrecision" image-rendering="optimizeQuality" fill-rule="evenodd" clip-rule="evenodd"
viewBox="0 0 2460 400"
 xmlns:xlink="http://www.w3.org/1999/xlink">
 <g id="Layer_x0020_1">
  <metadata id="d"/>
  <path fill="#00A0DF" d="M399 128l0 206c0,31 -23,56 -53,56l-293 0c-29,0 -53,-25 -53,-56l0 -206c0,-5 5,-16 14,-22 33,-19 111,-56 186,-97l185 98c11,5 14,14 14,21z"/>
  <path fill="white" d="M189 140c22,0 42,8 56,22 3,0 6,-1 10,-1 40,0 73,33 73,73 0,39 -30,70 -68,73l0 0 -131 0 0 0c-32,-2 -58,-29 -58,-62 0,-28 19,-52 45,-59 13,-27 41,-46 73,-46z"/>
  <path id="Combined-Shape" fill="#333333" d="M673 144l-67 93 -67 -93 -7 0 0 163 19 0 0 -115 52 70 6 0 52 -70 0 115 19 0 0 -163 -7 0zm120 45l-39 94 -39 -94 -20 0 49 114 -7 15c-6,15 -15,19 -26,19 -5,0 -9,-1 -15,-2l0 16c6,2 13,3 18,3 18,0 31,-9 41,-30l58 -135 -20 0zm169 -45c-47,0 -84,36 -84,83 0,47 37,83 84,83 29,0 53,-14 66,-35l-14 -11c-12,18 -30,28 -52,28 -36,0 -64,-28 -64,-65 0,-38 28,-65 64,-65 22,0 40,10 52,28l14 -11c-13,-21 -37,-35 -66,-35l0 0zm104 -19l-19 0 0 182 19 0 0 -182zm76 61c-35,0 -62,27 -62,62 0,35 27,61 62,62 34,0 62,-28 62,-62 0,-35 -28,-62 -62,-62l0 0zm0 17c24,0 43,20 43,45 0,25 -19,44 -43,44 -25,0 -43,-19 -43,-44 0,-25 18,-45 43,-45l0 0zm173 -14l-19 0 0 72c0,20 -14,32 -30,32 -17,0 -31,-12 -31,-32l0 -72 -18 0 0 71c0,30 21,50 49,50 27,0 49,-20 49,-50l0 -71zm114 -64l0 81c-9,-12 -25,-20 -43,-20 -34,0 -59,27 -59,62 0,35 25,62 59,62 18,0 35,-8 44,-22l0 19 18 0 0 -182 -19 0zm-41 168c-24,0 -42,-19 -42,-45 0,-26 18,-45 42,-45 21,0 42,14 42,45 0,31 -21,45 -42,45l0 0zm106 -161c-13,0 -25,11 -25,26 0,14 12,26 25,26 14,0 26,-12 26,-26 0,-15 -12,-26 -26,-26l0 0zm0 46c-11,0 -20,-9 -20,-20 0,-12 9,-21 20,-21 11,0 21,9 21,21 0,11 -10,20 -21,20l0 0zm11 -25c0,-5 -5,-9 -10,-9l-11 0 0 27 6 0 0 -9 4 0 7 9 7 0 -8 -10c3,-2 5,-4 5,-8l0 0zm-15 4l0 -7 5 0c2,0 3,1 3,3 0,2 -1,4 -3,4l-5 0z"/>
  <path fill="#333333" d="M1630 144c11,0 20,3 29,8 8,5 15,12 20,20l-14 10c-4,-6 -9,-11 -15,-15 -6,-3 -13,-5 -20,-5 -4,0 -7,0 -11,1 -3,1 -6,3 -9,5 -2,2 -4,4 -6,7 -1,3 -2,6 -2,10 0,4 1,7 2,10 1,2 3,5 5,7 3,2 5,3 8,5 3,2 7,3 10,5l17 9c6,2 11,5 16,8 4,3 8,7 11,10 3,4 6,8 7,12 2,4 3,9 3,14 0,7 -1,13 -4,19 -2,5 -6,10 -10,14 -5,4 -10,7 -16,9 -7,2 -13,3 -21,3 -12,0 -23,-3 -33,-9 -10,-6 -18,-15 -24,-25l14 -11c2,4 5,7 8,11 3,3 6,6 9,8 4,3 8,5 12,6 5,2 9,3 14,3 10,0 17,-3 23,-8 6,-4 9,-11 9,-19 0,-4 -1,-7 -2,-10 -1,-2 -3,-5 -6,-7 -2,-2 -5,-4 -8,-6 -3,-2 -7,-3 -10,-5l-18 -9c-4,-2 -9,-5 -13,-7 -4,-3 -8,-6 -11,-9 -4,-4 -6,-7 -8,-12 -2,-4 -3,-9 -3,-15 0,-6 1,-12 4,-17 2,-5 6,-10 10,-13 4,-4 9,-7 15,-9 6,-2 12,-3 18,-3zm135 59c-4,0 -9,1 -13,3 -5,1 -8,4 -12,7 -3,3 -6,6 -8,11 -3,4 -4,8 -5,13l73 0c0,-5 -1,-10 -3,-14 -2,-4 -4,-8 -8,-11 -3,-3 -6,-5 -10,-6 -5,-2 -9,-3 -14,-3zm53 37c0,3 0,6 0,8 -1,3 -1,5 -1,6l-91 0c1,6 2,11 5,16 2,5 5,9 9,12 3,4 8,6 12,8 5,2 11,3 16,3 8,0 14,-1 20,-4 6,-3 11,-7 16,-12l10 13c-6,6 -12,11 -20,15 -8,3 -16,5 -26,5 -9,0 -17,-2 -24,-5 -8,-3 -14,-7 -20,-13 -5,-5 -9,-12 -12,-19 -3,-8 -5,-16 -5,-25 0,-8 2,-16 5,-24 3,-7 7,-14 12,-20 5,-5 12,-10 19,-13 7,-3 14,-5 23,-5 7,0 14,2 20,4 7,3 12,7 17,11 5,5 9,11 11,17 3,7 4,14 4,22zm85 -52c2,0 4,0 5,0 1,1 3,1 4,1l0 17 -7 0c-5,0 -9,0 -14,2 -4,1 -8,4 -11,7 -3,2 -6,6 -8,10 -2,5 -3,10 -3,15l0 67 -19 0 0 -118 18 0 0 17c4,-6 9,-10 15,-13 7,-3 13,-5 20,-5zm134 1l-54 121 -7 0 -54 -121 19 0 39 89 38 -89 19 0zm45 118l-19 0 0 -118 19 0 0 118zm-9 -177c3,0 6,2 9,4 3,3 4,6 4,10 0,4 -1,7 -4,10 -3,2 -6,3 -9,3 -4,0 -7,-1 -10,-3 -3,-3 -4,-6 -4,-10 0,-4 1,-7 4,-10 3,-2 6,-4 10,-4zm100 56c11,0 20,3 28,7 8,5 15,11 20,19l-13 11c-4,-6 -9,-11 -15,-14 -5,-4 -12,-6 -19,-6 -6,0 -12,2 -17,4 -5,2 -10,5 -13,9 -4,4 -7,9 -9,15 -2,5 -3,11 -3,17 0,6 1,12 3,18 2,5 5,10 9,14 3,4 8,7 13,9 5,3 11,4 17,4 7,0 13,-2 19,-5 6,-3 10,-8 15,-14l13 11c-5,7 -12,13 -20,18 -8,5 -17,7 -28,7 -8,0 -16,-2 -23,-5 -7,-3 -14,-7 -19,-13 -6,-5 -10,-12 -13,-20 -3,-7 -5,-15 -5,-24 0,-9 2,-17 5,-24 3,-8 7,-14 13,-20 5,-5 12,-10 19,-13 7,-3 15,-5 23,-5zm129 17c-5,0 -9,1 -14,3 -4,1 -8,4 -11,7 -4,3 -6,6 -9,11 -2,4 -4,8 -5,13l73 0c0,-5 -1,-10 -3,-14 -1,-4 -4,-8 -7,-11 -3,-3 -7,-5 -11,-6 -4,-2 -8,-3 -13,-3zm53 37c0,3 0,6 -1,8 0,3 0,5 -1,6l-90 0c0,6 2,11 4,16 2,5 5,9 9,12 4,4 8,6 13,8 5,2 10,3 16,3 7,0 14,-1 19,-4 6,-3 11,-7 16,-12l11 13c-6,6 -13,11 -21,15 -7,3 -16,5 -25,5 -9,0 -17,-2 -25,-5 -7,-3 -14,-7 -19,-13 -5,-5 -10,-12 -13,-19 -3,-8 -4,-16 -4,-25 0,-8 1,-16 4,-24 3,-7 7,-14 13,-20 5,-5 11,-10 18,-13 7,-3 15,-5 23,-5 8,0 15,2 21,4 6,3 12,7 17,11 4,5 8,11 11,17 2,7 4,14 4,22zm67 -54c8,0 15,2 22,5 6,4 11,8 16,14l-11 12c-4,-5 -8,-8 -13,-10 -5,-2 -10,-4 -15,-4 -6,0 -11,2 -14,4 -4,3 -6,6 -6,11 0,4 2,7 5,10 3,2 8,5 14,8l11 4c10,5 18,10 23,15 5,5 7,12 7,20 0,6 -1,11 -3,15 -2,5 -5,8 -9,11 -4,3 -8,5 -13,7 -5,1 -10,2 -15,2 -10,0 -19,-2 -27,-7 -7,-4 -13,-10 -18,-16l12 -12c4,5 9,9 14,13 6,3 12,5 19,5 6,0 11,-1 15,-4 5,-3 7,-7 7,-13 0,-2 -1,-5 -2,-6 -1,-2 -2,-4 -4,-5 -2,-2 -4,-3 -6,-4 -3,-1 -6,-2 -8,-4l-11 -5c-5,-2 -9,-4 -12,-6 -4,-2 -7,-4 -9,-7 -3,-2 -5,-5 -6,-8 -1,-4 -2,-7 -2,-11 0,-6 1,-11 3,-15 2,-4 5,-7 8,-10 4,-3 8,-5 13,-6 4,-2 9,-3 15,-3z"/>
 </g>
</svg>
