<?xml version="1.0" encoding="UTF-8"?>
<!DOCTYPE svg PUBLIC "-//W3C//DTD SVG 1.1//EN" "http://www.w3.org/Graphics/SVG/1.1/DTD/svg11.dtd">
<svg xmlns="http://www.w3.org/2000/svg" xml:space="preserve" width="96px" height="96px" version="1.1" shape-rendering="geometricPrecision" text-rendering="geometricPrecision" image-rendering="optimizeQuality" fill-rule="evenodd" clip-rule="evenodd"
viewBox="0 0 960 960"
 xmlns:xlink="http://www.w3.org/1999/xlink">
 <g id="Layer_x0020_1">
  <metadata id="s"/>
  <circle fill="#00A0DF" cx="480" cy="480" r="190"/>
  <circle fill="#00A0DF" cx="845" cy="187" r="115"/>
  <circle fill="#00A0DF" cx="291" cy="115" r="115"/>
  <circle fill="#00A0DF" cx="115" cy="412" r="115"/>
  <circle fill="#00A0DF" cx="845" cy="845" r="115"/>
  <circle fill="#00A0DF" cx="330" cy="845" r="115"/>
  <rect fill="#00A0DF" transform="matrix(0.707422 -0.706791 0.706791 0.707422 525.144 556.981)" width="39.9991" height="422.502"/>
  <rect fill="#00A0DF" transform="matrix(-0.658256 -0.752794 0.752794 -0.658256 519.451 487.494)" width="39.9991" height="422.502"/>
  <rect fill="#00A0DF" transform="matrix(-0.86545 0.500996 -0.500996 -0.86545 513.79 474.957)" width="39.9991" height="422.502"/>
  <rect fill="#00A0DF" transform="matrix(-0.124555 0.992213 -0.992213 -0.124555 514.193 445.31)" width="39.9991" height="422.502"/>
  <rect fill="#00A0DF" transform="matrix(-0.926167 -0.377114 0.377114 -0.926167 343.171 856.39)" width="39.9991" height="422.502"/>
 </g>
</svg>
