<?xml version="1.0" encoding="UTF-8"?>
<!DOCTYPE svg PUBLIC "-//W3C//DTD SVG 1.1//EN" "http://www.w3.org/Graphics/SVG/1.1/DTD/svg11.dtd">
<svg xmlns="http://www.w3.org/2000/svg" xml:space="preserve" width="36px" height="23px" version="1.1" shape-rendering="geometricPrecision" text-rendering="geometricPrecision" image-rendering="optimizeQuality" fill-rule="evenodd" clip-rule="evenodd"
viewBox="0 0 360 230"
 xmlns:xlink="http://www.w3.org/1999/xlink">
 <g id="Layer_x0020_1">
  <metadata id="s"/>
  <path fill="#00A0DF" d="M166 -2c30,0 58,12 78,31 5,0 9,-1 14,-1 56,0 102,46 102,102 0,54 -42,98 -94,102l0 0 -184 0 0 0c-46,-2 -82,-40 -82,-86 0,-40 27,-73 63,-83 18,-39 58,-65 103,-65zm115 140l-19 -7c0,0 0,0 -1,0 -3,-2 -6,-4 -7,-5 0,0 0,0 0,-1 -1,0 -1,-1 -2,-1 -1,1 0,0 -1,0 0,-1 -1,-4 -1,-4 0,-1 -1,1 -1,-1l1 -3c0,-1 0,-1 0,-1 2,-2 2,-5 2,-6 1,-1 2,-1 3,-5 2,-4 3,-10 1,-10 0,0 0,0 -1,1 0,-2 1,-5 1,-8 0,-3 0,-11 -2,-14 -1,-2 -4,-4 -6,-5 -2,-1 -3,-2 -4,-2 -4,-2 -15,-1 -19,0 -4,0 -7,3 -9,6 -2,3 -3,12 -3,15 1,2 1,4 2,6 0,1 0,1 0,1 0,0 0,0 0,0 -2,0 -1,6 1,10 1,4 2,4 3,5 0,1 0,4 2,6 0,0 0,0 1,1l0 2 0 2c0,-1 0,-1 -1,0 0,1 -1,3 -1,4 -1,0 -2,0 -2,1 -1,2 -4,4 -8,5l0 1c0,0 0,0 -1,0l-18 7c-5,2 -8,2 -8,6l-3 16 113 0 -5 -16c0,-4 -3,-4 -7,-6zm-80 37l-22 -8c0,-1 -1,-1 -1,-1 -4,-2 -7,-4 -9,-5 0,-1 0,-1 0,-1 -1,-1 -1,-1 -2,-1 0,0 0,0 0,-1 -1,-1 -2,-4 -2,-4 0,-1 -1,1 -1,-1l0 -4c1,-1 1,-1 1,-1 2,-2 2,-6 3,-7 0,-1 2,-1 3,-6 2,-4 3,-11 1,-11 0,0 -1,0 -1,1 0,-2 1,-6 1,-9 0,-3 0,-13 -3,-17 -1,-2 -4,-4 -7,-6 -1,-1 -3,-1 -4,-2 -4,-2 -17,-1 -22,0 -5,1 -8,4 -10,8 -2,3 -3,14 -3,17 0,2 1,5 1,7 0,0 0,0 1,1 -1,0 -1,0 -1,0 -2,0 0,7 1,11 2,5 3,5 4,6 1,1 1,5 2,7 0,0 1,0 1,1l0 3 1 2c0,-1 -1,-1 -1,0 -1,1 -1,3 -2,5 -1,-1 -2,0 -2,1 -1,2 -5,4 -9,6l0 0c0,0 -1,0 -1,1l-22 8c-4,2 -8,2 -8,7l-4 18 130 0 -5 -18c0,-5 -4,-5 -8,-7z"/>
 </g>
</svg>
