<?xml version="1.0" encoding="UTF-8"?>
<!DOCTYPE svg PUBLIC "-//W3C//DTD SVG 1.1//EN" "http://www.w3.org/Graphics/SVG/1.1/DTD/svg11.dtd">
<svg xmlns="http://www.w3.org/2000/svg" xml:space="preserve" width="60px" height="60px" version="1.1" shape-rendering="geometricPrecision" text-rendering="geometricPrecision" image-rendering="optimizeQuality" fill-rule="evenodd" clip-rule="evenodd"
viewBox="0 0 600 600"
 xmlns:xlink="http://www.w3.org/1999/xlink">
 <g id="Layer_x0020_1">
  <metadata id="s"/>
  <path fill="#0A4BB1" d="M331 127c58,0 123,45 123,113 -10,-1 -18,1 -26,6 -28,-67 -190,-76 -222,55 -29,2 -120,51 -70,151l-54 1c-45,0 -82,-38 -82,-82 0,-44 33,-78 74,-82 0,-4 -1,-9 -1,-14 0,-53 43,-95 95,-95 15,0 29,3 42,9 4,2 8,4 11,7 2,-4 4,-8 6,-11 20,-35 52,-58 104,-58z"/>
  <path fill="#0A4BB1" d="M541 356c33,1 59,28 59,62 0,34 -28,61 -62,61 -103,0 -206,1 -309,1 -43,0 -78,-35 -78,-78 0,-43 35,-78 78,-78l3 0c1,-54 45,-97 100,-97 37,0 70,20 87,51 13,-9 28,-14 45,-14 43,0 78,35 78,78 0,5 0,9 -1,14z"/>
 </g>
</svg>
