<?xml version="1.0" encoding="UTF-8"?>
<!DOCTYPE svg PUBLIC "-//W3C//DTD SVG 1.1//EN" "http://www.w3.org/Graphics/SVG/1.1/DTD/svg11.dtd">
<svg xmlns="http://www.w3.org/2000/svg" xml:space="preserve" width="70px" height="54px" version="1.1" shape-rendering="geometricPrecision" text-rendering="geometricPrecision" image-rendering="optimizeQuality" fill-rule="evenodd" clip-rule="evenodd"
viewBox="0 0 700 540"
 xmlns:xlink="http://www.w3.org/1999/xlink">
 <g id="Layer_x0020_1">
  <metadata id="s"/>
  <path fill="#72C58B" d="M0 105l700 0 0 -5c0,-23 -19,-41 -41,-41l-334 0 -64 -59 -220 0c-23,0 -41,19 -41,41l0 64z"/>
  <path fill="#BAE5A6" d="M0 93l700 0 0 392c0,23 -19,42 -41,42l-618 0c-23,0 -41,-19 -41,-42l0 -392z"/>
  <path fill="#0A4BB1" d="M276 222c29,0 61,22 61,56 -5,-1 -9,1 -13,3 -14,-34 -95,-38 -111,27 -15,1 -60,26 -35,76l-27 0c-23,0 -41,-18 -41,-40 0,-22 16,-39 37,-41 0,-3 0,-5 0,-8 0,-26 21,-47 47,-47 8,0 15,2 21,5 2,1 4,2 6,3 1,-2 2,-4 3,-6 10,-17 25,-28 52,-28z"/>
  <path fill="#0A4BB1" d="M380 336c17,1 30,14 30,31 0,17 -14,31 -31,31 -51,0 -103,0 -154,0 -22,0 -39,-17 -39,-39 0,-21 17,-39 39,-39l1 0c1,-27 23,-49 50,-49 19,0 35,11 43,26 7,-5 15,-7 23,-7 21,0 39,17 39,39 0,2 0,5 -1,7z"/>
 </g>
</svg>
