<?xml version="1.0" encoding="UTF-8"?>
<!DOCTYPE svg PUBLIC "-//W3C//DTD SVG 1.1//EN" "http://www.w3.org/Graphics/SVG/1.1/DTD/svg11.dtd">
<svg xmlns="http://www.w3.org/2000/svg" xml:space="preserve" width="130px" height="96px" version="1.1" shape-rendering="geometricPrecision" text-rendering="geometricPrecision" image-rendering="optimizeQuality" fill-rule="evenodd" clip-rule="evenodd"
viewBox="0 0 1300 960"
 xmlns:xlink="http://www.w3.org/1999/xlink">
 <g id="Layer_x0020_1">
  <metadata id="s"/>
  <path fill="#00A0DF" d="M627 374c76,0 146,30 197,78 11,-1 22,-2 34,-2 140,0 255,114 255,255 0,135 -105,245 -237,254l0 1 -459 0 0 0c-114,-6 -205,-100 -205,-216 0,-99 67,-183 158,-208 46,-96 144,-162 257,-162z"/>
  <path fill="#FCCD48" d="M1180 166c66,0 120,54 120,120 0,66 -54,120 -120,120 -66,0 -120,-54 -120,-120 0,-66 54,-120 120,-120zm0 30c50,0 90,40 90,90 0,50 -40,90 -90,90 -50,0 -90,-40 -90,-90 0,-50 40,-90 90,-90z"/>
  <path fill="#11A861" d="M650 0c66,0 120,54 120,120 0,66 -54,120 -120,120 -66,0 -120,-54 -120,-120 0,-66 54,-120 120,-120zm0 30c50,0 90,40 90,90 0,50 -40,90 -90,90 -50,0 -90,-40 -90,-90 0,-50 40,-90 90,-90z"/>
  <path fill="#007EE5" d="M168 166c66,0 120,54 120,120 0,66 -54,120 -120,120 -67,0 -120,-54 -120,-120 0,-66 53,-120 120,-120zm0 30c49,0 89,40 89,90 0,50 -40,90 -89,90 -50,0 -90,-40 -90,-90 0,-50 40,-90 90,-90z"/>
  <rect fill="#11A861" x="633" y="225" width="29.9981" height="95.1799"/>
  <rect fill="#FCCD48" transform="matrix(0.5657 0.5657 -0.309435 0.309435 1094.8 352.495)" width="37.4967" height="217.501"/>
  <rect fill="#007EE5" transform="matrix(-0.5657 0.5657 0.477405 0.477405 259.843 347.192)" width="37.4967" height="217.501"/>
 </g>
</svg>
