<?xml version="1.0" encoding="UTF-8"?>
<!DOCTYPE svg PUBLIC "-//W3C//DTD SVG 1.1//EN" "http://www.w3.org/Graphics/SVG/1.1/DTD/svg11.dtd">
<svg xmlns="http://www.w3.org/2000/svg" xml:space="preserve" width="48px" height="48px" version="1.1" shape-rendering="geometricPrecision" text-rendering="geometricPrecision" image-rendering="optimizeQuality" fill-rule="evenodd" clip-rule="evenodd"
viewBox="0 0 480 480"
 xmlns:xlink="http://www.w3.org/1999/xlink">
 <g id="Layer_x0020_1">
  <metadata id="s"/>
  <circle fill="black" cx="240" cy="240" r="240"/>
  <circle fill="white" cx="240" cy="240" r="220"/>
  <path fill="black" d="M256 204c14,3 26,9 36,19 10,11 15,24 15,41 0,13 -3,24 -10,34 -6,10 -15,18 -26,23 -10,6 -22,8 -35,8 -15,0 -29,-4 -41,-11 -11,-8 -20,-18 -27,-31l22 -15c6,9 12,16 20,21 7,5 15,8 25,8 12,0 21,-4 29,-10 7,-7 11,-16 11,-27 0,-11 -4,-19 -12,-25 -7,-6 -18,-9 -33,-9l-21 0 0 -8 45 -61 -72 0 0 -29 121 0 0 9 -47 63z"/>
 </g>
</svg>
