<?xml version="1.0" encoding="UTF-8"?>
<!DOCTYPE svg PUBLIC "-//W3C//DTD SVG 1.1//EN" "http://www.w3.org/Graphics/SVG/1.1/DTD/svg11.dtd">
<svg xmlns="http://www.w3.org/2000/svg" xml:space="preserve" width="48px" height="48px" version="1.1" shape-rendering="geometricPrecision" text-rendering="geometricPrecision" image-rendering="optimizeQuality" fill-rule="evenodd" clip-rule="evenodd"
viewBox="0 0 480 480"
 xmlns:xlink="http://www.w3.org/1999/xlink">
 <g id="Layer_x0020_1">
  <metadata id="s"/>
  <circle fill="black" cx="240" cy="240" r="240"/>
  <circle fill="white" cx="240" cy="240" r="220"/>
  <path fill="black" d="M310 299l0 27 -139 0 0 -7 69 -74c11,-12 19,-21 24,-29 5,-8 7,-16 7,-24 0,-10 -3,-18 -9,-25 -6,-6 -13,-9 -23,-9 -10,0 -18,3 -24,10 -6,7 -9,15 -9,25 0,4 0,9 1,15l-31 0c-1,-5 -2,-11 -2,-17 0,-10 3,-20 8,-30 5,-9 13,-17 23,-23 9,-6 21,-9 34,-9 12,0 23,3 33,8 10,5 17,13 23,22 5,9 8,19 8,30 0,13 -3,25 -10,36 -7,11 -17,24 -31,38l-34 36 82 0z"/>
 </g>
</svg>
