<?xml version="1.0" encoding="UTF-8"?>
<!DOCTYPE svg PUBLIC "-//W3C//DTD SVG 1.1//EN" "http://www.w3.org/Graphics/SVG/1.1/DTD/svg11.dtd">
<svg xmlns="http://www.w3.org/2000/svg" xml:space="preserve" width="320px" height="96px" version="1.1" shape-rendering="geometricPrecision" text-rendering="geometricPrecision" image-rendering="optimizeQuality" fill-rule="evenodd" clip-rule="evenodd"
viewBox="0 0 3200 960"
 xmlns:xlink="http://www.w3.org/1999/xlink">
 <g id="Layer_x0020_1">
  <metadata id="s"/>
  <path fill="#222222" d="M1452 391l0 370 -86 0 0 -579 383 386 0 -372 85 0 0 581 -382 -386zm886 -217c-168,0 -304,137 -304,306 0,168 136,306 304,306 167,0 303,-138 303,-306 0,-169 -136,-306 -303,-306zm0 525c-119,0 -216,-99 -216,-219 0,-121 97,-219 216,-219 118,0 215,98 215,219 0,120 -97,219 -215,219zm-1476 -525c-167,0 -303,137 -303,306 0,168 136,306 303,306 168,0 304,-138 304,-306 0,-169 -136,-306 -304,-306zm0 525c-118,0 -215,-99 -215,-219 0,-121 97,-219 215,-219 119,0 215,98 215,219 0,120 -96,219 -215,219zm-675 -176l-1 -1c-57,-18 -95,-36 -124,-58 -41,-32 -62,-72 -62,-120 0,-45 21,-89 57,-120 37,-33 87,-50 143,-50 116,0 182,77 185,81l-71 48c-16,-13 -59,-40 -114,-40 -70,0 -112,41 -112,81 0,28 16,58 125,93l0 1c57,18 96,36 125,58 41,32 62,72 62,120 0,45 -21,89 -57,120 -37,33 -88,50 -143,50 -116,0 -182,-77 -185,-81l70 -48c17,13 59,40 115,40 70,0 111,-41 111,-81 0,-28 -15,-58 -124,-93l0 0zm2800 0l0 -1c-58,-18 -96,-36 -125,-58 -41,-32 -62,-72 -62,-120 0,-45 21,-89 57,-120 37,-33 88,-50 143,-50 116,0 182,77 185,81l-70 48c-17,-13 -59,-40 -115,-40 -70,0 -111,41 -111,81 0,28 15,58 124,93l1 1c57,18 95,36 124,58 41,32 62,72 62,120 0,45 -21,89 -57,120 -37,33 -87,50 -143,50 -116,0 -182,-77 -185,-81l71 -48c16,13 59,40 114,40 70,0 111,-41 111,-81 0,-28 -15,-58 -124,-93l0 0z"/>
 </g>
</svg>
